<?xml version="1.0" encoding="UTF-8"?>
<svg id="Layer_1" xmlns="http://www.w3.org/2000/svg" viewBox="0 0 344.51 54.32">
  <defs>
    <style>
      .cls-1 {
        fill: #fff;
      }

      .cls-2 {
        fill: #1a1717;
      }
    </style>
  </defs>
  <g id="Group_52">
    <path id="Path_60" class="cls-2" d="M219.53,53.81c-4.52.16-8.92-1.47-12.24-4.54-3.3-3.21-5.1-7.66-4.95-12.26V12.22c-.05-3.46,1.41-6.78,3.99-9.09,4.93-4.18,12.16-4.17,17.07.03,2.58,2.3,4.05,5.6,4.01,9.06v18.02h8.86c3-.07,5.92.94,8.24,2.85,4.93,4.28,5.46,11.75,1.18,16.68-.4.47-.84.9-1.32,1.3-2.29,1.84-5.16,2.81-8.1,2.75h-16.74Z"/>
    <path id="Path_62" class="cls-2" d="M248.22,54.31c-3.13.05-6.17-1.06-8.52-3.13-2.58-2.31-4.04-5.62-3.99-9.08V12.21c-.05-3.46,1.41-6.78,3.99-9.09C242.05,1.06,245.09-.05,248.22,0c3.04-.04,5.99,1.01,8.32,2.96,2.73,2.29,4.28,5.69,4.24,9.25v29.89c.05,3.56-1.51,6.96-4.23,9.25-2.33,1.95-5.29,3-8.33,2.96"/>
    <path id="Path_64" class="cls-2" d="M299.07,54.31c-3.13.05-6.17-1.06-8.52-3.13-.27-.24-.52-.49-.77-.75-.24.26-.5.51-.77.75-2.35,2.06-5.39,3.18-8.52,3.13-3.17.06-6.24-1.09-8.59-3.21-.24-.22-.47-.44-.68-.68-.24.25-.49.5-.75.73-4.91,4.2-12.15,4.22-17.07.03-2.58-2.31-4.04-5.62-3.99-9.08v-20.52c0-7.93,3.26-12.85,5.99-15.59S263.05,0,270.98,0c3.3,0,6.56.81,9.47,2.38C283.4.81,286.7-.01,290.06,0c7.93,0,12.85,3.26,15.59,5.99s5.99,7.65,5.99,15.59v20.52c.03,3.45-1.42,6.75-4,9.05-2.36,2.08-5.41,3.21-8.56,3.17"/>
    <path id="Path_66" class="cls-2" d="M315.96,53.81c-4.52.16-8.92-1.47-12.24-4.54-3.3-3.21-5.1-7.66-4.95-12.26v-19.92c-.14-4.52,1.61-8.9,4.84-12.07,3.24-3.04,7.56-4.66,12-4.52h15.49c3-.07,5.92.94,8.23,2.84,2.63,2.23,4.13,5.52,4.08,8.97.05,3.48-1.5,6.8-4.2,9-.2.16-.41.33-.64.49.71,1.57,1.07,3.28,1.06,5,0,1.72-.37,3.42-1.09,4.98,5.66,3.21,7.64,10.41,4.43,16.07-.69,1.22-1.6,2.31-2.67,3.21-2.29,1.84-5.16,2.81-8.1,2.75h-16.24Z"/>
    <path id="Subtraction_3" class="cls-1" d="M299.07,45.09c-.87.04-1.72-.24-2.39-.8-.61-.56-.94-1.36-.9-2.19v-20.52c0-2.51-.47-4.35-1.39-5.45s-2.46-1.67-4.58-1.67c-1.69-.1-3.33.58-4.46,1.84-1.13,1.52-1.69,3.39-1.57,5.28v20.52c.04.83-.29,1.63-.9,2.19-.67.56-1.52.84-2.39.8-.86.04-1.71-.24-2.37-.8-.6-.57-.91-1.37-.87-2.19v-20.52c.11-1.88-.45-3.73-1.59-5.23-1.11-1.28-2.74-1.98-4.43-1.89-2.12,0-3.66.56-4.58,1.67-.92,1.11-1.39,2.94-1.39,5.45v20.52c.03.82-.31,1.62-.92,2.17-1.41,1.09-3.38,1.1-4.81.03-.61-.56-.94-1.36-.9-2.19v-20.52c-.03-1.75.25-3.5.82-5.15,1.05-2.98,3.4-5.32,6.38-6.38,1.66-.57,3.4-.85,5.15-.82,1.84,0,3.65.47,5.26,1.37,1.7.97,3.15,2.3,4.26,3.91,1.06-1.63,2.51-2.98,4.21-3.93,1.64-.89,3.48-1.36,5.35-1.34,1.75-.03,3.5.25,5.15.82,2.98,1.05,5.32,3.4,6.38,6.38.57,1.66.85,3.4.82,5.15v20.52c.03.82-.31,1.62-.92,2.17-.67.57-1.54.86-2.42.82ZM248.22,45.09c-.87.04-1.72-.24-2.39-.8-.61-.56-.94-1.36-.9-2.19V12.21c-.04-.83.29-1.63.9-2.19.67-.56,1.52-.84,2.39-.8.87-.03,1.72.25,2.39.8.64.55.99,1.35.95,2.19v29.88c.04.84-.31,1.65-.95,2.19-.67.55-1.52.83-2.39.8ZM332.19,44.59h-16.24c-2.14.13-4.25-.59-5.88-1.99-1.45-1.48-2.21-3.51-2.09-5.58v-19.92c-.12-2.01.62-3.98,2.02-5.43,1.54-1.36,3.55-2.06,5.6-1.94h15.49c.82-.05,1.63.19,2.29.67.55.48.84,1.19.8,1.92.03.72-.27,1.41-.82,1.87-.65.48-1.46.72-2.27.67h-14.35c-.59-.03-1.17.21-1.57.65-.41.51-.61,1.15-.57,1.79v6.92h12.7c.82-.05,1.63.18,2.29.67.55.48.84,1.19.8,1.92.03.72-.27,1.41-.82,1.87-.65.48-1.46.72-2.27.67h-12.7v7.67c-.04.65.17,1.29.57,1.79.4.44.98.68,1.57.65h15.44c.82-.05,1.63.18,2.29.67.55.48.84,1.19.8,1.92.03.72-.27,1.41-.82,1.87-.66.48-1.46.72-2.27.67h0ZM236.27,44.59h-16.73c-2.14.13-4.25-.58-5.88-1.99-1.45-1.48-2.21-3.51-2.09-5.58V12.21c-.04-.83.29-1.63.9-2.19.67-.56,1.52-.84,2.39-.8.88-.04,1.74.26,2.41.82.61.55.95,1.34.92,2.17v24.8c-.04.65.17,1.29.58,1.8.4.44.98.68,1.57.65h15.93c.82-.05,1.63.18,2.29.67.55.48.84,1.19.8,1.92.03.72-.27,1.41-.82,1.87-.66.48-1.46.72-2.27.67h0Z"/>
  </g>
  <g id="Group_51">
    <path id="Path_116" class="cls-2" d="M17.2,53.81c-4.52.16-8.92-1.47-12.24-4.54C1.66,46.07-.14,41.62,0,37.02V12.22c-.05-3.46,1.41-6.78,3.99-9.09,4.93-4.18,12.16-4.17,17.07.03,2.58,2.3,4.05,5.6,4.01,9.06v18.02h8.85c3-.07,5.92.94,8.24,2.85,4.93,4.28,5.46,11.75,1.18,16.69-.4.46-.84.89-1.31,1.29-2.3,1.84-5.16,2.82-8.11,2.76h-16.73Z"/>
    <path id="Path_117" class="cls-2" d="M49.07,53.81c-4.52.16-8.91-1.47-12.24-4.54-3.3-3.21-5.1-7.66-4.96-12.26v-19.92c-.14-4.52,1.61-8.9,4.84-12.07,3.24-3.04,7.56-4.66,12-4.52h15.49c3-.07,5.93.94,8.24,2.85,2.63,2.23,4.13,5.52,4.07,8.97.05,3.48-1.5,6.8-4.2,9-.2.16-.41.32-.64.49.71,1.57,1.07,3.28,1.06,5,.01,1.72-.36,3.42-1.07,4.98,3.73,2.05,6.03,6,5.95,10.26.05,3.49-1.5,6.8-4.2,9.01-2.3,1.84-5.17,2.82-8.11,2.76h-16.24Z"/>
    <path id="Path_119" class="cls-2" d="M113.92,54.31c-3.13.05-6.17-1.06-8.53-3.13-.27-.24-.52-.49-.77-.74-.25.26-.51.51-.78.75-2.35,2.06-5.39,3.17-8.51,3.12-3.17.06-6.24-1.09-8.59-3.22-.24-.22-.46-.44-.68-.67-.24.25-.49.49-.75.73-4.91,4.2-12.14,4.22-17.07.04-2.59-2.31-4.05-5.62-4-9.09v-20.52c0-7.93,3.26-12.85,5.99-15.59S77.9,0,85.83,0c3.3,0,6.56.81,9.47,2.38C98.26.81,101.56-.01,104.91,0c7.94,0,12.86,3.26,15.59,5.99,2.73,2.73,5.99,7.65,5.99,15.59v20.52c.03,3.45-1.42,6.75-4,9.04-2.36,2.09-5.41,3.22-8.56,3.17"/>
    <path id="Path_120" class="cls-2" d="M139.72,54.31c-5.01.1-9.96-1.06-14.41-3.37-4.31-2.27-7.84-5.78-10.14-10.07-2.23-4.22-3.37-8.94-3.3-13.72-.07-4.78,1.07-9.5,3.3-13.72,2.31-4.29,5.84-7.79,10.14-10.06,9.08-4.49,19.74-4.49,28.82,0,4.3,2.27,7.84,5.78,10.14,10.06,2.23,4.23,3.37,8.94,3.3,13.72.07,4.78-1.07,9.5-3.3,13.72-2.31,4.29-5.83,7.79-10.14,10.06-4.45,2.31-9.4,3.46-14.41,3.37M139.23,23.68c-.29,0-1.25.02-1.48.29-.58.96-.84,2.07-.75,3.18-.08,1.06.16,2.12.7,3.04.37.4,1.65.43,2.03.43s1.66-.03,2.03-.43c.54-.92.78-1.98.7-3.04.08-1.02-.16-2.04-.68-2.92-.76-.46-1.66-.66-2.54-.56"/>
    <path id="Path_121" class="cls-2" d="M189.83,54.31c-3.15.05-6.2-1.08-8.56-3.16-1.92-1.7-3.23-3.98-3.75-6.49-.51,2.51-1.83,4.79-3.75,6.49-4.91,4.2-12.14,4.22-17.07.04-2.59-2.31-4.05-5.62-4-9.09v-18.78c0-8.86,3.9-14.25,7.18-17.2C164.38,2.06,170.31,0,177.53,0s13.15,2.06,17.64,6.12c3.27,2.96,7.17,8.34,7.17,17.2v18.78c.05,3.47-1.41,6.78-4,9.09-2.35,2.06-5.38,3.17-8.51,3.12"/>
    <path id="Subtraction_4" class="cls-1" d="M189.83,44.84c-.88.04-1.74-.25-2.41-.82-.61-.55-.95-1.34-.92-2.17v-18.93c.16-2.38-.67-4.72-2.29-6.47-1.52-1.49-3.77-2.24-6.67-2.24s-5.15.75-6.67,2.24c-1.62,1.75-2.45,4.09-2.29,6.48v18.93c.03.82-.31,1.62-.92,2.17-1.41,1.09-3.38,1.1-4.81.03-.61-.56-.94-1.36-.9-2.19v-18.77c-.03-2.01.32-4.02,1.03-5.9.68-1.71,1.74-3.23,3.1-4.46,1.43-1.27,3.11-2.23,4.93-2.8,4.26-1.25,8.79-1.25,13.05,0,1.82.58,3.5,1.53,4.93,2.8,1.36,1.23,2.42,2.75,3.1,4.46.72,1.88,1.07,3.89,1.03,5.9v18.77c.04.83-.29,1.63-.9,2.19-.67.55-1.52.84-2.38.8ZM139.73,44.84c-3.48.09-6.93-.69-10.04-2.27-2.71-1.43-4.94-3.63-6.4-6.33-1.5-2.88-2.25-6.09-2.19-9.34-.06-3.25.69-6.46,2.19-9.34,1.46-2.7,3.69-4.9,6.4-6.33,6.35-3.02,13.72-3.02,20.07,0,2.71,1.43,4.94,3.63,6.4,6.33,1.5,2.88,2.25,6.09,2.19,9.34.06,3.25-.69,6.46-2.19,9.34-1.46,2.7-3.69,4.9-6.4,6.33-3.11,1.58-6.56,2.36-10.04,2.27h0ZM139.23,14.21c-3.19-.17-6.29,1.1-8.44,3.46-2.1,2.61-3.18,5.89-3.01,9.24,0,3.9,1.06,7.03,3.14,9.29s5.05,3.41,8.82,3.41,6.73-1.15,8.82-3.41,3.14-5.39,3.14-9.29-1.1-7.06-3.26-9.31-5.26-3.39-9.19-3.39h0ZM113.93,44.84c-.87.04-1.72-.24-2.39-.8-.61-.56-.94-1.36-.9-2.19v-20.52c0-2.51-.47-4.35-1.39-5.45s-2.47-1.67-4.59-1.67c-1.69-.1-3.33.58-4.46,1.84-1.14,1.52-1.69,3.39-1.57,5.28v20.52c.04.83-.29,1.63-.9,2.19-.67.56-1.52.84-2.39.8-.86.04-1.71-.24-2.37-.8-.6-.57-.91-1.37-.87-2.19v-20.52c.11-1.88-.46-3.73-1.6-5.23-1.11-1.28-2.74-1.98-4.43-1.89-2.11,0-3.65.56-4.58,1.67-.93,1.11-1.39,2.94-1.39,5.45v20.52c.03.82-.31,1.62-.92,2.17-1.41,1.09-3.38,1.1-4.81.03-.61-.56-.94-1.36-.9-2.19v-20.52c-.03-1.75.25-3.5.83-5.15,1.05-2.98,3.4-5.33,6.38-6.38,1.66-.57,3.4-.85,5.15-.82,1.84,0,3.65.47,5.25,1.37,1.7.96,3.15,2.3,4.26,3.91,1.06-1.63,2.51-2.98,4.21-3.93,1.64-.89,3.49-1.36,5.36-1.35,1.75-.03,3.5.25,5.15.82,2.98,1.05,5.32,3.4,6.38,6.38.57,1.66.85,3.4.82,5.15v20.52c.03.82-.31,1.62-.92,2.17-.67.57-1.54.86-2.41.82h0ZM65.32,44.34h-16.24c-2.14.13-4.25-.59-5.88-1.99-1.45-1.48-2.21-3.51-2.09-5.58v-19.92c-.12-2.01.62-3.98,2.02-5.43,1.54-1.36,3.55-2.06,5.61-1.94h15.49c.82-.05,1.63.19,2.29.67.55.48.84,1.19.8,1.92.03.72-.27,1.41-.82,1.87-.65.48-1.46.72-2.27.67h-14.35c-.59-.03-1.17.21-1.57.65-.41.51-.61,1.14-.57,1.79v6.92h12.7c.82-.05,1.63.19,2.29.67.55.48.84,1.19.8,1.92.03.72-.27,1.41-.82,1.87-.65.48-1.46.72-2.27.67h-12.7v7.67c-.04.65.17,1.29.57,1.79.4.44.98.68,1.57.65h15.44c.82-.05,1.63.19,2.29.67.55.48.84,1.19.8,1.92.03.72-.27,1.41-.82,1.87-.66.48-1.46.72-2.27.67h0ZM33.94,44.34h-16.74c-2.14.13-4.25-.58-5.88-1.99-1.45-1.48-2.21-3.51-2.09-5.58V11.97c-.04-.83.29-1.63.9-2.19.67-.56,1.52-.84,2.39-.8.88-.04,1.74.26,2.41.82.61.55.95,1.34.92,2.17v24.8c-.04.65.17,1.29.58,1.8.4.44.98.68,1.57.65h15.93c.82-.06,1.64.18,2.3.67.55.48.84,1.19.8,1.92.03.72-.27,1.41-.82,1.87-.66.49-1.46.73-2.28.68h.01Z"/>
  </g>
</svg>