<?xml version="1.0" encoding="UTF-8"?>
<svg id="Layer_1" xmlns="http://www.w3.org/2000/svg" viewBox="0 0 266.98 54.81">
  <defs>
    <style>
      .cls-1 {
        fill: #fff;
      }

      .cls-2 {
        fill: #000;
      }
    </style>
  </defs>
  <g id="Group_43">
    <path id="Path_68" class="cls-2" d="M27.89,54.8c-5.02.1-9.98-1.07-14.43-3.4-4.32-2.3-7.86-5.84-10.16-10.15C1.07,36.98-.07,32.22,0,27.41c-.07-4.82,1.07-9.58,3.3-13.84,2.3-4.32,5.84-7.86,10.16-10.16,9.09-4.53,19.77-4.53,28.86,0,4.32,2.3,7.86,5.84,10.16,10.15,2.23,4.27,3.37,9.03,3.3,13.85.07,4.82-1.07,9.58-3.3,13.84-2.3,4.32-5.84,7.85-10.16,10.16-4.45,2.33-9.41,3.5-14.43,3.4M27.39,23.9c-.29,0-1.25.02-1.49.3-.58.97-.84,2.09-.75,3.21-.08,1.07.16,2.14.7,3.07.37.4,1.65.44,2.03.44s1.66-.03,2.03-.43c.54-.93.78-2,.7-3.07.08-1.03-.16-2.06-.69-2.94-.5-.52-2.08-.57-2.55-.57"/>
    <path id="Path_70" class="cls-2" d="M54.79,54.8c-3.14.05-6.18-1.07-8.53-3.15-2.59-2.34-4.05-5.68-4-9.17v-25.23c-.15-4.56,1.61-8.98,4.85-12.19,3.24-3.06,7.56-4.7,12.02-4.56h8.88c7,0,12.66,1.62,16.82,4.82,3.39,2.61,7.43,7.51,7.43,16.1.17,5.27-1.71,10.41-5.24,14.33,3.43,5.1,2.46,11.96-2.24,15.92l-.17.15-.18.14c-2.21,1.79-4.96,2.77-7.8,2.8-3.55-.03-6.93-1.55-9.32-4.18l-1.67-1.72c-.67,1.12-1.52,2.11-2.52,2.96-2.33,1.97-5.29,3.03-8.34,2.99"/>
    <path id="Path_72" class="cls-2" d="M92.8,54.8c-3.14.05-6.18-1.07-8.53-3.16-2.59-2.34-4.05-5.68-4-9.17V12.33c-.05-3.49,1.41-6.83,4-9.17C86.62,1.08,89.66-.05,92.8,0c3.05-.04,6,1.02,8.34,2.99,2.74,2.32,4.29,5.75,4.24,9.34v30.15c.05,3.59-1.5,7.01-4.24,9.33-2.33,1.97-5.29,3.03-8.34,2.99"/>
    <path id="Path_74" class="cls-2" d="M120.96,54.8c-4.87.09-9.68-1.01-14.03-3.2-4.34-2.24-7.9-5.74-10.2-10.06-2.26-4.35-3.4-9.19-3.31-14.09-.09-4.9,1.05-9.75,3.3-14.1,2.28-4.31,5.81-7.83,10.13-10.09C111.18,1.04,115.99-.08,120.86,0c4.13-.03,8.22.75,12.05,2.29,3.91,1.48,7.32,4.05,9.82,7.4,1.54,2.07,2.37,4.58,2.38,7.15,0,1.74-.38,3.46-1.14,5.03,1.73,2.56,2.62,5.6,2.53,8.69v1.96c.05,4.32-1.25,8.55-3.72,12.1-2.42,3.44-5.76,6.13-9.63,7.76-3.85,1.64-8.01,2.46-12.2,2.41"/>
    <path id="Path_76" class="cls-2" d="M147.07,54.8c-3.14.05-6.18-1.07-8.53-3.16-2.59-2.34-4.05-5.68-4-9.17V12.33c-.05-3.49,1.41-6.83,4-9.17C140.88,1.08,143.93-.05,147.07,0c3.05-.04,6,1.02,8.34,2.99,2.74,2.32,4.29,5.75,4.24,9.34v30.15c.05,3.59-1.5,7.01-4.24,9.33-2.33,1.97-5.29,3.03-8.34,2.99"/>
    <path id="Path_78" class="cls-2" d="M185.09,54.8c-3.16.05-6.21-1.09-8.57-3.19-1.92-1.72-3.24-4.02-3.75-6.55-.51,2.53-1.83,4.83-3.75,6.55-4.9,4.24-12.17,4.26-17.09.04-2.59-2.34-4.05-5.68-4-9.17v-18.95c0-8.94,3.91-14.38,7.19-17.36C159.6,2.08,165.54,0,172.77,0s13.17,2.08,17.67,6.17c3.28,2.99,7.18,8.42,7.18,17.36v18.95c.05,3.49-1.41,6.84-4.01,9.17-2.35,2.08-5.39,3.2-8.52,3.15"/>
    <path id="Path_80" class="cls-2" d="M221.27,54.75c-3.16.05-6.22-1.09-8.57-3.19-1.99-1.78-3.33-4.17-3.8-6.8-.47,2.63-1.81,5.02-3.8,6.8-4.9,4.24-12.17,4.26-17.09.04-2.59-2.34-4.06-5.68-4.01-9.17v-17.59c0-9.24,3.75-14.9,6.89-18.03C195.43,2.29,201.49,0,208.9,0c4.39-.07,8.73.93,12.65,2.91,3.97,2.06,7.21,5.28,9.29,9.24,2.02,3.92,3.04,8.28,2.96,12.69v17.59c.05,3.49-1.41,6.83-4,9.17-2.35,2.08-5.39,3.21-8.53,3.16"/>
    <path id="Path_82" class="cls-2" d="M237.89,54.3c-4.53.15-8.94-1.49-12.26-4.58-3.31-3.25-5.11-7.73-4.96-12.37V12.33c-.05-3.49,1.41-6.83,4-9.17,4.92-4.22,12.19-4.21,17.09.03,2.59,2.33,4.06,5.66,4.02,9.14v18.18h8.87c3.01-.07,5.94.95,8.25,2.87,4.98,4.37,5.47,11.95,1.1,16.92-.38.44-.8.84-1.24,1.22-2.29,1.85-5.17,2.84-8.11,2.78h-16.76Z"/>
    <path id="Path_114" class="cls-1" d="M17.82,43.02c-2.72-1.45-4.95-3.68-6.39-6.41-1.5-2.92-2.26-6.17-2.19-9.46-.07-3.29.69-6.54,2.19-9.46,1.44-2.73,3.67-4.96,6.39-6.41,6.33-3.06,13.71-3.06,20.05,0,2.72,1.45,4.95,3.68,6.39,6.41,1.5,2.92,2.25,6.17,2.19,9.46.07,3.29-.69,6.54-2.19,9.46-1.44,2.73-3.67,4.96-6.39,6.41-6.33,3.06-13.71,3.06-20.05,0M36.65,36.56c2.09-2.3,3.13-5.44,3.13-9.41,0-4-1.09-7.14-3.26-9.43-2.17-2.29-5.23-3.43-9.18-3.43-3.2-.18-6.3,1.11-8.43,3.51-2.01,2.34-3.01,5.46-3.01,9.36s1.04,7.1,3.13,9.41,5.02,3.46,8.8,3.46,6.71-1.15,8.8-3.46M51.52,16.96c-.12-2.03.61-4.03,2.02-5.5,1.53-1.38,3.54-2.09,5.6-1.97h8.85c4.94,0,8.67.98,11.19,2.93,2.52,1.95,3.78,4.86,3.78,8.73,0,3.6-1.05,6.41-3.16,8.42-2.31,2.1-5.36,3.18-8.48,3.03l7.56,7.62c.57.54.89,1.28.9,2.07,0,.83-.39,1.61-1.05,2.12-.59.52-1.35.82-2.14.86-1.03-.03-1.99-.51-2.64-1.31l-10.74-11.15h-5.07v9.48c.04.85-.31,1.66-.94,2.22-.67.55-1.52.84-2.39.81-.87.04-1.72-.24-2.39-.81-.61-.57-.94-1.38-.9-2.22v-25.33ZM67.79,27.61c1.73.06,3.46-.16,5.12-.66,1.09-.33,2.03-1.06,2.61-2.04.57-1.17.83-2.46.77-3.76,0-2.29-.69-3.93-2.06-4.94-1.38-1.01-3.52-1.51-6.44-1.51h-7.51c-.59-.03-1.17.21-1.57.66-.41.51-.61,1.16-.57,1.82v10.44h9.65ZM90.42,44.51c-.61-.57-.94-1.38-.9-2.22V12.02c-.04-.84.29-1.65.9-2.22.66-.56,1.52-.85,2.39-.81.87-.03,1.72.26,2.39.81.64.56.99,1.37.94,2.22v30.27c.04.85-.31,1.66-.94,2.22-.67.55-1.52.84-2.39.81-.87.04-1.72-.24-2.39-.81M111.21,43.15c-2.7-1.39-4.9-3.57-6.32-6.26-1.52-3-2.28-6.33-2.19-9.69-.08-3.37.67-6.7,2.19-9.71,1.41-2.69,3.6-4.89,6.29-6.31,2.99-1.52,6.32-2.28,9.68-2.19,2.93-.03,5.84.52,8.56,1.61,2.31.84,4.33,2.33,5.82,4.29.38.47.59,1.06.6,1.66-.05.93-.55,1.78-1.34,2.27-.43.31-.96.47-1.49.45-.52,0-1.02-.12-1.49-.33-.48-.21-.91-.53-1.24-.93-1.06-1.26-2.41-2.24-3.93-2.85-1.75-.63-3.61-.93-5.47-.88-3.62,0-6.43,1.13-8.46,3.4s-3.03,5.44-3.03,9.51,1.02,7.18,3.06,9.43,4.88,3.38,8.53,3.38c2.49.14,4.96-.48,7.09-1.77,1.65-1.07,2.62-2.93,2.56-4.89v-1.11c.06-.53-.11-1.07-.47-1.46-.48-.31-1.05-.45-1.62-.4h-6.52c-.79.05-1.57-.2-2.19-.68-.54-.48-.83-1.17-.8-1.89-.05-.73.24-1.44.77-1.94.63-.49,1.42-.73,2.21-.68h9.65c1.51-.13,3.02.31,4.23,1.24.98,1.05,1.47,2.48,1.34,3.91v1.97c.04,2.42-.67,4.79-2.04,6.78-1.45,2.04-3.44,3.63-5.75,4.59-5.89,2.36-12.49,2.17-18.23-.53M144.68,44.51c-.61-.57-.94-1.38-.9-2.22V12.02c-.04-.84.29-1.65.9-2.22.66-.56,1.52-.85,2.39-.81.87-.03,1.72.26,2.39.81.64.56.99,1.37.94,2.22v30.27c.04.85-.31,1.66-.94,2.22-.67.55-1.52.84-2.39.81-.87.04-1.72-.24-2.39-.81M158.11,44.51c-.61-.57-.94-1.38-.9-2.22v-19.02c0-4.47,1.38-7.97,4.13-10.49,2.75-2.52,6.57-3.78,11.44-3.78,4.87,0,8.69,1.26,11.44,3.78s4.13,6.02,4.13,10.49v19.02c.04.84-.28,1.65-.89,2.22-1.42,1.09-3.39,1.08-4.8-.03-.62-.56-.95-1.36-.92-2.19v-19.17c0-2.86-.76-5.04-2.29-6.56s-3.75-2.27-6.66-2.27c-2.92,0-5.14.76-6.67,2.27-1.52,1.51-2.29,3.7-2.29,6.56v19.17c.03.83-.3,1.64-.92,2.19-1.41,1.1-3.38,1.11-4.8.03M194.32,44.46c-.61-.57-.94-1.38-.9-2.22v-17.66c0-4.88,1.38-8.69,4.13-11.45s6.58-4.14,11.49-4.14c2.9-.07,5.77.57,8.36,1.87,2.31,1.2,4.2,3.09,5.4,5.4,1.3,2.58,1.94,5.44,1.86,8.32v17.66c.04.84-.29,1.65-.9,2.22-1.42,1.09-3.39,1.08-4.8-.03-.62-.56-.95-1.36-.92-2.19v-8.23h-18v8.22c.03.83-.3,1.63-.92,2.19-1.41,1.1-3.38,1.11-4.8.03M218.04,28.82v-4.39c0-3.36-.75-5.89-2.26-7.59-1.51-1.7-3.76-2.55-6.74-2.55-6,0-9,3.38-9,10.14v4.39h18ZM232.07,42.79c-1.46-1.51-2.21-3.56-2.09-5.65V12.02c-.04-.84.29-1.65.9-2.22,1.42-1.09,3.39-1.08,4.8.02.62.56.95,1.36.92,2.19v25.12c-.04.66.16,1.3.57,1.82.4.44.97.69,1.57.66h15.92c.82-.05,1.63.19,2.29.68.55.49.84,1.21.8,1.94.04.72-.27,1.42-.82,1.89-.65.49-1.45.73-2.26.68h-16.71c-2.15.13-4.26-.59-5.87-2.02"/>
  </g>
</svg>