<?xml version="1.0" encoding="UTF-8"?>
<svg id="Layer_1" data-name="Layer 1" xmlns="http://www.w3.org/2000/svg" version="1.1" viewBox="0 0 276.35 87.07">
  <defs>
    <style>
      .cls-1 {
        fill: #000;
      }

      .cls-1, .cls-2 {
        stroke-width: 0px;
      }

      .cls-2 {
        fill: #fff;
      }
    </style>
  </defs>
  <g id="black_outline" data-name="black outline">
    <g>
      <path class="cls-1" d="M36.71,87.07c-.32,0-.64,0-.96-.01-6.74-.18-12.92-2.18-18.37-5.93-5.2-3.57-9.46-8.52-12.66-14.69C1.48,60.22-.1,53.85,0,47.5c.11-6.65,2.11-12.88,5.96-18.52,3.67-5.38,8.93-9.87,15.65-13.35,6.53-3.39,13.05-5.1,19.39-5.1h.54c6.82.11,13.07,2.06,18.57,5.8,5.25,3.57,9.54,8.54,12.77,14.76,2.43,4.68,3.92,9.5,4.45,14.34.21,1.93.26,3.83.16,5.7.7.12,1.63.23,2.91.29,1.38.07,2.68.13,3.99.13,2.7,0,4.88-.3,7.06-.96,1.97-.6,3.14-1.26,4.17-1.84,1.74-.98,3.72-1.49,5.74-1.49,5.63,0,10,3.88,12.02,7.21,2.05,3.37,2.64,7.55,1.61,11.47-2.58,9.87-13.52,12.3-18.78,13.47-.47.1-4.76,1.02-10.96,1.02-5.56,0-10.97-.72-16.08-2.14-2-.56-3.84-1.23-5.11-1.73-2.54,2.09-5.4,3.96-8.56,5.6-6.29,3.26-12.62,4.92-18.8,4.92ZM39.04,39.25c-1.47,0-3.23.52-5.22,1.56-3.3,1.71-3.71,3.38-3.88,4.09-.3,1.25-.25,2.63.16,4.17,1.92-1.76,4.03-3.24,6.31-4.42,2.44-1.26,5-2.19,7.65-2.78-1.48-1.73-2.72-2.15-3.23-2.33-.57-.19-1.16-.29-1.78-.29Z"/>
      <path class="cls-1" d="M86.17,67.38c-1.4,0-2.8-.11-4.16-.31-5.09-.77-9.63-2.91-13.48-6.34-3.65-3.25-6.44-7.53-8.29-12.71l-7-19.57c-1.34-3.74-1.06-7.66.77-11.01,1.65-3.01,4.34-5.25,7.79-6.48,1.67-.6,3.36-.9,5.04-.9,1.78,0,3.51.34,5.15,1,3.57,1.45,6.26,4.28,7.58,7.98l7.06,19.74c.38,1.06.75,1.7.98,2.03.16-.04.36-.09.63-.19.27-.1.46-.18.59-.25-.01-.32-.09-1.03-.51-2.2l-7.06-19.74c-1.32-3.71-1.04-7.61.81-10.99,1.65-3.03,4.35-5.3,7.81-6.53,1.68-.6,3.38-.9,5.06-.9s3.46.33,5.07.98c3.56,1.44,6.25,4.29,7.59,8.03l7,19.57c1.82,5.1,2.34,10.17,1.53,15.05-.84,5.09-3.03,9.63-6.49,13.49-3.29,3.67-7.57,6.47-12.71,8.31-3.63,1.3-7.25,1.96-10.75,1.96Z"/>
      <path class="cls-1" d="M142.7,86.1c-3.71,0-7.05-1.23-9.66-3.56-2.89-2.57-4.49-6.18-4.49-10.15v-.08h-2.39v.08c0,3.97-1.6,7.58-4.49,10.16-2.61,2.32-5.95,3.55-9.65,3.55s-7.03-1.22-9.61-3.52c-2.88-2.56-4.47-6.18-4.47-10.19v-21.65c0-8.72,2.73-15.84,8.11-21.16,5.35-5.28,12.52-7.96,21.32-7.96,5.6,0,10.66,1.15,15.01,3.42,4.73,2.47,8.4,6.09,10.91,10.77,2.33,4.34,3.51,9.36,3.51,14.93v21.65c0,4.02-1.59,7.64-4.48,10.2-2.58,2.29-5.9,3.51-9.6,3.51Z"/>
      <path class="cls-1" d="M156.74,86.54c-5.04,0-8.39-2.04-10.32-3.74-3.06-2.73-4.75-6.58-4.75-10.86v-31.94h-4.8c-4.79,0-7.98-1.79-9.82-3.29-3.18-2.6-4.94-6.37-4.94-10.62s1.7-8,4.78-10.6c1.83-1.55,5.05-3.39,9.98-3.39h39.79c4.92,0,8.14,1.85,9.98,3.39,3.08,2.6,4.78,6.36,4.78,10.59s-1.75,8.01-4.94,10.62c-1.84,1.5-5.03,3.29-9.82,3.29h-4.8v31.94c0,4.22-1.69,8.05-4.76,10.79-2.81,2.5-6.39,3.81-10.38,3.81Z"/>
      <path class="cls-1" d="M171.68,87.07c-3.74,0-7.1-1.23-9.71-3.54-2.92-2.59-4.52-6.25-4.52-10.3v-32.14c0-7.22,3.08-11.69,5.65-14.18,2.51-2.42,7-5.3,14.14-5.3h11.4c8.57,0,15.46,1.94,20.47,5.76,4.02,3.07,8.8,8.85,8.8,19.03,0,9.22-3.91,14.86-7.2,17.96-.04.04-.08.07-.12.11,2.09,2.5,3.22,5.56,3.22,8.75,0,3.96-1.72,7.61-4.84,10.28l-.19.17-.2.16c-3.4,2.62-6.7,3.17-8.87,3.17-3.96,0-7.73-1.69-10.62-4.75l-4-4.09c-.79,2.13-2.12,4.02-3.91,5.53-2.63,2.21-5.92,3.38-9.52,3.38Z"/>
      <path class="cls-1" d="M240.06,86.78c-5.04,0-10.33-1.04-15.71-3.09-7.07-2.7-12.82-6.56-17.07-11.48-4.46-5.16-7.16-11.12-8.03-17.72-.83-6.28.02-12.8,2.52-19.36,2.5-6.56,6.2-11.98,11-16.12,5.04-4.34,11.02-7,17.79-7.88,1.53-.2,3.1-.3,4.67-.3,5.04,0,10.33,1.04,15.71,3.09,7.07,2.69,12.81,6.56,17.07,11.48,4.46,5.16,7.16,11.12,8.03,17.72.83,6.29-.02,12.81-2.52,19.36-2.5,6.56-6.2,11.98-11.01,16.12-5.04,4.34-11.02,7-17.79,7.88-1.53.2-3.1.3-4.67.3ZM236.88,39.05c-.82,0-1.51.17-2.24.56-1.93,1.03-3.46,3.08-4.68,6.27-1.8,4.73-.92,6.94-.63,7.67.27.68.99,2.49,4.98,4.01,1.51.58,2.86.87,4,.87h0c.88,0,1.64-.17,2.38-.54.7-.35,2.83-1.41,4.63-6.14,1.78-4.67.86-6.85.55-7.56-.28-.66-1.14-2.68-5.61-4.38-1.28-.49-2.42-.74-3.39-.74Z"/>
    </g>
  </g>
  <g id="white_text" data-name="white text">
    <path class="cls-2" d="M71.86,68.65c-2.87-.8-5.43-1.94-5.43-1.94-.49-.22-.89-.41-1.16-.54-.02-.04-1.02-.7-2.98-1.96-2.82,3.57-6.62,6.6-11.38,9.07-5.12,2.66-10.08,3.92-14.89,3.79-4.8-.13-9.13-1.52-12.98-4.17-3.85-2.65-7-6.33-9.45-11.05-2.47-4.76-3.67-9.49-3.59-14.18.08-4.69,1.48-9.04,4.22-13.05,2.74-4.01,6.73-7.38,11.99-10.11,5.26-2.73,10.31-4.05,15.17-3.98,4.86.08,9.22,1.43,13.1,4.07,3.88,2.64,7.05,6.34,9.52,11.1,1.86,3.6,2.99,7.2,3.39,10.82.39,3.62.04,7.05-1.07,10.31.43.29.79.52,1.08.68.28.17.52.32.7.45.9.58,2.25,1.36,3.98,2.02,2.02.77,4.22,1.26,7.83,1.44,4.27.21,8.92.44,14.46-1.26,2.9-.89,4.77-1.91,6.14-2.68,1.38-.77,3.41.7,4.33,2.2.85,1.4.68,2.97.48,3.74-1.03,3.96-7.68,5.44-11.27,6.24,0,0-10.34,2.3-22.19-.99ZM34.72,58.71c1.81-2.22,3.91-3.95,6.29-5.19,2.61-1.35,5.38-2.13,8.32-2.35,2.94-.21,5.75.18,8.44,1.18.28-3.85-.65-7.85-2.79-11.98-2.77-5.35-6.42-8.78-10.95-10.31-4.53-1.53-9.47-.91-14.81,1.87-4.9,2.54-7.9,6.08-8.99,10.61-1.1,4.53-.3,9.41,2.41,14.62,2.14,4.13,4.79,7.15,7.94,9.05.96-2.78,2.34-5.28,4.15-7.5ZM54.83,60.04c-1.64-.74-3.35-1.1-5.13-1.06-1.78.04-3.45.46-5.02,1.28s-2.97,1.97-4.06,3.39c-1.09,1.42-1.81,2.99-2.17,4.72,3.03.02,6.12-.78,9.27-2.41s5.47-3.58,7.11-5.91Z"/>
    <path class="cls-2" d="M83.51,57.18c-3.16-.48-5.94-1.79-8.33-3.92-2.4-2.13-4.24-5-5.53-8.61l-7-19.57c-.38-1.05-.33-2,.13-2.84.46-.84,1.26-1.47,2.38-1.87s2.15-.42,3.07-.05,1.56,1.07,1.92,2.08l7.06,19.74c1.33,3.72,3.24,6.26,5.72,7.63,2.48,1.36,5.37,1.45,8.68.27s5.44-3.08,6.51-5.73c1.07-2.65.94-5.82-.38-9.5l-7.06-19.74c-.36-1.02-.31-1.96.17-2.83.47-.87,1.27-1.51,2.4-1.91s2.14-.42,3.03-.07c.89.36,1.53,1.07,1.9,2.12l7,19.57c1.25,3.5,1.61,6.85,1.08,10.05-.53,3.2-1.89,6.02-4.07,8.45s-5.06,4.29-8.63,5.57-6.88,1.66-10.04,1.17Z"/>
    <path class="cls-2" d="M109.05,75.1c-.74-.66-1.11-1.57-1.11-2.72v-21.65c0-5.98,1.71-10.66,5.13-14.04,3.42-3.38,8.19-5.07,14.29-5.07,4,0,7.46.76,10.39,2.29,2.93,1.53,5.17,3.73,6.71,6.62,1.55,2.89,2.32,6.29,2.32,10.21v21.65c0,1.15-.37,2.06-1.11,2.72-.74.66-1.73.99-2.97.99s-2.24-.34-3-1.02c-.76-.68-1.14-1.58-1.14-2.69v-10.08h-22.39v10.08c0,1.11-.38,2.01-1.14,2.69-.76.68-1.76,1.02-3,1.02s-2.23-.33-2.97-.99ZM138.56,55.93v-5.38c0-4.12-.94-7.23-2.81-9.31-1.88-2.08-4.67-3.12-8.38-3.12-7.46,0-11.2,4.14-11.2,12.43v5.38h22.39Z"/>
    <path class="cls-2" d="M153.05,75.31c-.92-.82-1.38-1.94-1.38-3.37V30h-14.8c-1.48,0-2.65-.34-3.49-1.03s-1.26-1.65-1.26-2.88.41-2.26,1.23-2.95c.82-.69,1.99-1.04,3.53-1.04h39.79c1.53,0,2.71.34,3.53,1.04.82.69,1.23,1.67,1.23,2.95s-.42,2.19-1.27,2.88-2.01,1.03-3.49,1.03h-14.8v41.94c0,1.38-.47,2.49-1.42,3.33-.95.84-2.18,1.27-3.72,1.27s-2.76-.41-3.68-1.23Z"/>
    <path class="cls-2" d="M167.45,41.09c0-2.99.86-5.31,2.59-6.98s4.13-2.5,7.2-2.5h11.4c6.36,0,11.16,1.24,14.4,3.71,3.24,2.48,4.87,6.17,4.87,11.08,0,4.57-1.36,8.13-4.07,10.69-2.71,2.56-6.35,3.84-10.92,3.84l9.73,9.67c.77.77,1.15,1.64,1.15,2.62s-.45,1.92-1.34,2.69c-.94.73-1.86,1.09-2.75,1.09-1.24,0-2.37-.56-3.39-1.66l-13.83-14.15h-6.53v12.04c0,1.2-.41,2.13-1.22,2.82-.81.68-1.84,1.02-3.07,1.02s-2.3-.34-3.07-1.02-1.15-1.62-1.15-2.82v-32.14ZM188.39,54.6c2.82,0,5.01-.28,6.59-.83,1.58-.55,2.7-1.42,3.36-2.59.66-1.17.99-2.76.99-4.77,0-2.9-.89-4.99-2.66-6.27-1.77-1.28-4.54-1.92-8.29-1.92h-9.67c-.85,0-1.53.28-2.02.83-.49.56-.74,1.32-.74,2.3v13.25h12.42Z"/>
    <path class="cls-2" d="M214.85,65.66c-3.18-3.68-5.07-7.84-5.68-12.48-.61-4.65.04-9.48,1.95-14.49,1.91-5.01,4.64-9.05,8.19-12.11,3.55-3.06,7.73-4.91,12.55-5.54,4.82-.63,9.99.11,15.53,2.22,5.53,2.11,9.89,5,13.07,8.68,3.18,3.68,5.07,7.84,5.68,12.48.61,4.65-.04,9.48-1.95,14.49-1.91,5.01-4.64,9.05-8.19,12.11-3.55,3.06-7.73,4.91-12.55,5.54-4.82.63-9.99-.11-15.53-2.22s-9.89-5-13.06-8.68ZM245.16,66.82c4.21-2.1,7.39-5.95,9.51-11.53,2.15-5.63,2.28-10.64.41-15.04-1.87-4.4-5.62-7.67-11.25-9.81-5.16-1.96-9.79-1.85-13.9.35-4.12,2.2-7.22,6.04-9.31,11.52-2.13,5.58-2.32,10.56-.57,14.93,1.74,4.38,5.31,7.59,10.71,9.65,5.39,2.06,10.19,2.03,14.41-.07Z"/>
  </g>
  <g id="addatives">
    <path class="cls-2" d="M32.96,15.27c3.5-.93,7.12-1.01,10.73-.96,2.98.04,6.23.21,8.62,2.2l.44-1.07c-2.22-.19-4.52-.36-6.74-.18-1.41.11-2.85.51-3.54,1.85-.21.41.04.95.54.94,4.34-.12,8.55.94,12.31,3.12.7.4,1.33-.68.63-1.08-3.93-2.28-8.39-3.42-12.94-3.29l.54.94c.71-1.38,2.61-1.26,3.95-1.27,1.75,0,3.51.07,5.26.22.52.04.85-.73.44-1.07-2.48-2.07-5.67-2.48-8.8-2.56-3.94-.09-7.94-.02-11.76,1-.78.21-.45,1.41.33,1.21h0Z"/>
    <path class="cls-2" d="M91.73,3.83c4.03-1.79,8.73.06,10.63,3.98l.86-.86c-2.93-1.4-6.44-2.87-9.52-1.01-.53.32-.31,1.16.32,1.16,1.34.01,2.66.17,3.96.49.73.18,2.11.51,2.22,1.44.09.79,1.34.8,1.25,0-.15-1.33-1.23-2.05-2.42-2.44-1.59-.53-3.34-.72-5.01-.74l.32,1.16c2.66-1.6,5.76-.19,8.26,1.01.57.27,1.13-.28.86-.86-1.01-2.09-2.78-3.75-4.93-4.62-2.39-.98-5.07-.84-7.41.19-.73.33-.1,1.4.63,1.08h0Z"/>
    <path class="cls-2" d="M234.11,14.12c4.57-.8,9.28.27,13.08,2.91l.32-1.16c-2.9-.36-5.8-.12-8.6.7-.67.19-.55,1.24.17,1.23,5.01-.09,9.95,1.56,13.87,4.69.62.5,1.51-.38.88-.88-4.19-3.34-9.39-5.15-14.75-5.06l.17,1.23c2.7-.79,5.48-1.01,8.27-.66.67.08.77-.85.32-1.16-4.09-2.83-9.15-3.89-14.05-3.03-.79.14-.46,1.34.33,1.21h0Z"/>
    <path class="cls-2" d="M132.71,71.96c.07,3.83,2.43,7.47,5.94,9.03l.63-1.08c-1.57-.69-2.67-2.17-2.75-3.91l-1.07.44c2.68,2.56,6.62,4.65,10.23,2.62.7-.39.07-1.47-.63-1.08-3.09,1.74-6.47-.27-8.72-2.42-.37-.36-1.1-.12-1.07.44.11,2.14,1.4,4.12,3.37,4.98.73.32,1.37-.75.63-1.08-3.12-1.39-5.26-4.53-5.32-7.96-.01-.8-1.26-.81-1.25,0h0Z"/>
    <path class="cls-2" d="M204.06,66.72c2.23,2.09,3.5,4.98,3.52,8.04,0,.68,1.09.88,1.23.17.41-2.14.62-4.3.62-6.47l-1.07.44c1.54,1.81,1.96,4.7,1.69,6.99s-1.4,4.31-3.34,5.49c-.69.42-.06,1.5.63,1.08,2.28-1.38,3.62-3.79,3.94-6.4s-.23-5.93-2.04-8.05c-.36-.42-1.07-.07-1.07.44,0,2.06-.19,4.11-.58,6.14l1.23.17c-.02-3.37-1.42-6.61-3.88-8.92-.59-.55-1.47.33-.88.88h0Z"/>
    <path class="cls-2" d="M18.17,78.23c3.1,2.17,6.6,3.69,10.31,4.48.71.15,1.06-.73.48-1.14-1.55-1.1-3.21-2.29-3.96-4.11l-.44.77c1.12-.2,2.56.91,3.59,1.31,1.1.43,2.25.74,3.41.95,2.23.4,4.49.39,6.72.03.79-.13.46-1.33-.33-1.21-2.45.4-4.97.3-7.38-.32-1.15-.29-2.27-.69-3.34-1.21-1-.49-1.86-.97-3.01-.77-.31.05-.56.48-.44.77.89,2.16,2.68,3.54,4.53,4.85l.48-1.14c-3.61-.77-6.98-2.24-10.01-4.36-.66-.46-1.29.62-.63,1.08h0Z"/>
    <path class="cls-2" d="M244.3,79.91c4.32-.04,8.23-1.92,12.02-3.82l-.86-.86c-1.33,1.78-2.82,3.41-4.45,4.91-.37.34-.1,1.13.44,1.07,6.74-.78,11.38-6.01,14.61-11.56.41-.7-.67-1.33-1.08-.63-2.98,5.12-7.27,10.22-13.53,10.94l.44,1.07c1.71-1.58,3.25-3.3,4.65-5.16.41-.54-.35-1.11-.86-.86-3.59,1.8-7.29,3.61-11.39,3.65-.8,0-.81,1.26,0,1.25h0Z"/>
    <path class="cls-1" d="M104.33,57.71c.19.1.38.21.56.33.92.59-.16.03-.13-.13-.01.06.59.58.7.68.77.72-.56-.89.06.09.13.2.24.4.35.62.09.18.38.84.02,0-.4-.93,0,.11.05.33.07.29.13.59.17.89l-.18-1.33c.12.99.12,1.98,0,2.97l.18-1.33c-.12.81-.32,1.6-.58,2.38-.09.28-.2.55-.29.83-.28.8.58-1.2.16-.37-.1.19-.18.38-.28.57-.23.43-.5.82-.76,1.23-.3.48.7-.78.07-.11-.22.24-.43.47-.67.7-.18.17-.37.33-.55.49-.46.42.95-.67.27-.21-.36.25-.73.48-1.11.69-2.28,1.28-3.24,4.6-1.79,6.84s4.4,3.16,6.84,1.79c4.27-2.39,7.27-6.74,8.23-11.52.59-2.95.54-6-.64-8.79-1.12-2.65-3.08-4.89-5.62-6.28-2.3-1.25-5.55-.64-6.84,1.79s-.66,5.5,1.79,6.84h0Z"/>
    <path class="cls-1" d="M205.69,35.55c.34.64.61,1.31.94,1.95-.77-1.49.03.11.18.54.18.52.35,1.04.5,1.57.17.58.31,1.17.44,1.76.07.31.13.63.18.95,0,.03.16,1.26.09.53s.03.45.04.59c.03.44.06.88.07,1.31.02.76,0,1.53-.03,2.29-.02.37-.05.73-.09,1.1-.03.3.04,1.2-.01.14.03.61-.25,1.38-.39,1.97-.28,1.17-.67,2.3-1.07,3.43s.48-1.02.02-.02c-.08.18-.16.36-.25.54-.21.45-.44.89-.67,1.33-.35.64-.72,1.26-1.11,1.87-1.43,2.2-.52,5.62,1.79,6.84,2.49,1.32,5.32.55,6.84-1.79,6.2-9.54,6.48-21.98,1.16-31.95-1.23-2.31-4.63-3.22-6.84-1.79-2.35,1.51-3.11,4.37-1.79,6.84h0Z"/>
    <path class="cls-2" d="M106.79,53.2c3.01.72,5.2,3.55,5.13,6.64l1.23-.17c-.8-2.27-2.62-4.01-4.95-4.67-.57-.16-.91.45-.71.92.4.93.98,1.76,1.31,2.72s.5,1.9.53,2.89c.05,1.95-.47,3.85-1.52,5.49-.43.68.65,1.31,1.08.63,1.16-1.82,1.75-3.97,1.69-6.12-.03-1.05-.2-2.11-.54-3.11-.37-1.11-1.01-2.06-1.48-3.12l-.71.92c1.89.54,3.42,1.94,4.07,3.8.23.65,1.21.57,1.23-.17.08-3.63-2.52-7-6.05-7.85-.78-.19-1.12,1.02-.33,1.21h0Z"/>
    <path class="cls-2" d="M206.33,29.77c2.83,1.28,4.79,3.89,5.23,6.97l1.04-.61c-1.38-1.61-3.18-2.76-5.21-3.37-.42-.13-.95.32-.77.77.36.9,1.06,1.5,1.61,2.27.59.82,1.05,1.73,1.39,2.68.69,1.89,1.01,3.9,1.31,5.88.12.79,1.33.46,1.21-.33-.3-1.98-.62-3.99-1.31-5.88-.32-.86-.7-1.71-1.19-2.49-.53-.84-1.45-1.55-1.82-2.47l-.77.77c1.83.55,3.41,1.6,4.66,3.05.46.53,1.12-.06,1.04-.61-.48-3.35-2.72-6.32-5.8-7.71-.73-.33-1.36.75-.63,1.08h0Z"/>
    <path class="cls-2" d="M172.51,15.99c4.11.14,8.74.34,11.75,3.55l.44-1.07c-1.14-.09-2.19-.89-3.31-1.16s-2.26-.29-3.4-.13c-.68.09-.5,1.02,0,1.21,3.19,1.2,5.77,3.67,7.19,6.76.34.73,1.41.1,1.08-.63-1.56-3.4-4.45-6.02-7.94-7.34v1.21c1.15-.16,2.32-.04,3.43.33,1.01.34,1.87.92,2.95,1.01.57.05.79-.7.44-1.07-3.24-3.46-8.18-3.77-12.63-3.92-.8-.03-.8,1.22,0,1.25h0Z"/>
    <path class="cls-2" d="M132.95,15.85c3.08-.81,6.29-.78,9.36.07v-1.21c-2.42.61-4.74,1.54-6.91,2.77-.54.31-.3,1.17.32,1.16,3.76-.04,7.52-.08,11.28-.11.8,0,.81-1.26,0-1.25-3.76.04-7.52.08-11.28.11l.32,1.16c2.08-1.18,4.29-2.07,6.61-2.65.61-.15.58-1.04,0-1.21-3.28-.92-6.73-.94-10.03-.07-.78.2-.45,1.41.33,1.21h0Z"/>
  </g>
</svg>