<?xml version="1.0" encoding="UTF-8"?>
<svg id="Layer_1" xmlns="http://www.w3.org/2000/svg" viewBox="0 0 342.65 110.75">
  <defs>
    <style>
      .cls-1 {
        fill: #fff;
      }

      .cls-2 {
        fill: #1a1717;
      }
    </style>
  </defs>
  <g id="Group_53">
    <path id="Path_84" class="cls-2" d="M12.77,110.74c-3.19.05-6.29-1.08-8.68-3.19C1.45,105.2-.04,101.82,0,98.29v-25.49c-.15-4.61,1.64-9.08,4.94-12.31,3.31-3.1,7.71-4.76,12.24-4.61h8.58c7.31,0,13.22,1.77,17.59,5.25,3.45,2.75,7.55,7.89,7.55,16.75s-4,13.92-7.36,16.67c-4.32,3.53-10.2,5.33-17.48,5.33h-.59c-.35,2.95-1.77,5.67-3.99,7.64-2.4,2.13-5.52,3.28-8.72,3.23"/>
    <path id="Path_86" class="cls-2" d="M54.81,110.24c-4.61.16-9.09-1.5-12.48-4.63-3.37-3.27-5.2-7.81-5.05-12.5v-20.31c-.15-4.61,1.64-9.08,4.94-12.31,3.31-3.1,7.71-4.76,12.24-4.61h15.79c3.06-.07,6.04.96,8.4,2.9,2.68,2.27,4.21,5.63,4.15,9.14.05,3.55-1.53,6.93-4.28,9.18-.2.16-.42.33-.65.5.72,1.6,1.09,3.34,1.08,5.1.01,1.75-.36,3.49-1.09,5.08,3.81,2.09,6.14,6.11,6.07,10.46.05,3.55-1.53,6.94-4.29,9.18-2.34,1.88-5.27,2.87-8.27,2.81h-16.55Z"/>
    <path id="Path_88" class="cls-2" d="M107.98,110.7c-3.21.05-6.32-1.1-8.73-3.23-2.02-1.79-3.39-4.21-3.87-6.87-.48,2.66-1.85,5.08-3.87,6.88-5,4.28-12.38,4.3-17.4.04-2.64-2.35-4.13-5.74-4.08-9.27v-17.77c0-9.33,3.81-15.06,7.01-18.22,4.61-4.57,10.79-6.88,18.34-6.88,4.47-.08,8.89.93,12.88,2.94,4.03,2.07,7.33,5.33,9.46,9.33,2.06,3.96,3.09,8.36,3.02,12.82v17.77c.05,3.53-1.44,6.91-4.07,9.26-2.4,2.1-5.5,3.24-8.69,3.19"/>
    <path id="Path_90" class="cls-2" d="M134.89,110.75c-4.95.09-9.85-1.02-14.28-3.24-4.42-2.25-8.04-5.79-10.39-10.16-2.3-4.39-3.46-9.28-3.37-14.24-.09-4.96,1.07-9.85,3.36-14.24,2.33-4.36,5.93-7.91,10.31-10.19,4.41-2.25,9.31-3.38,14.26-3.3,4.2-.03,8.36.76,12.27,2.31,3.97,1.5,7.44,4.09,10,7.48,3.99,5.27,2.95,12.77-2.32,16.76-.14.11-.29.21-.44.31-.24.18-.49.35-.74.51.7.37,1.36.8,1.98,1.3l.15.12.15.13c5.07,4.19,5.87,11.65,1.8,16.82l-.06.08c-2.68,3.33-6.21,5.86-10.21,7.34-3.99,1.51-8.22,2.26-12.48,2.22M134.79,79.52c-.23,0-1.37.02-1.65.33-.33.36-.67,1.41-.67,3.27-.12,1.09.11,2.18.65,3.14.31.34,1.54.36,1.78.36,2.54,0,3.31-.76,3.6-1.05l.18-.17c.86-.81,1.81-1.53,2.82-2.14-1.62-.76-3.06-1.86-4.22-3.23-.08-.1-.19-.19-.31-.25-.71-.2-1.44-.29-2.18-.25"/>
    <path id="Path_92" class="cls-2" d="M184.41,110.75c-3.21.05-6.32-1.1-8.72-3.23-1.92-1.71-3.25-3.98-3.79-6.49-.54,2.52-1.87,4.79-3.8,6.5-5.01,4.28-12.38,4.3-17.41.03-2.63-2.35-4.12-5.73-4.07-9.26v-30.47c-.05-3.53,1.44-6.91,4.07-9.27,5.02-4.26,12.39-4.25,17.4.03,1.93,1.71,3.26,3.98,3.8,6.5.54-2.51,1.87-4.79,3.79-6.49,5.01-4.29,12.38-4.3,17.41-.04,2.64,2.35,4.12,5.73,4.07,9.27v30.47c.05,3.53-1.44,6.92-4.08,9.27-2.4,2.1-5.49,3.24-8.68,3.18"/>
    <path id="Subtraction_5" class="cls-1" d="M184.4,101.09c-.9.04-1.78-.26-2.46-.84-.63-.56-.97-1.37-.94-2.21v-13.1h-18.23v13.1c.03.84-.31,1.65-.94,2.21-1.44,1.11-3.45,1.12-4.9.03-.62-.57-.96-1.39-.91-2.23v-30.47c-.04-.84.29-1.66.91-2.23,1.45-1.09,3.46-1.08,4.9.03.63.56.97,1.37.94,2.21v12.13h18.23v-12.14c-.03-.84.31-1.65.94-2.21,1.44-1.11,3.45-1.12,4.9-.03.62.57.96,1.39.91,2.23v30.47c.04.84-.29,1.66-.91,2.23-.68.57-1.55.86-2.44.81ZM134.89,101.09c-3.44.08-6.86-.67-9.95-2.18-2.74-1.39-4.99-3.59-6.45-6.3-1.55-3.01-2.32-6.36-2.23-9.75-.08-3.39.69-6.75,2.23-9.77,1.45-2.71,3.69-4.93,6.42-6.35,3.06-1.53,6.45-2.29,9.88-2.21,2.99-.03,5.95.52,8.73,1.62,2.35.85,4.41,2.34,5.94,4.32.38.48.6,1.07.61,1.68-.06.94-.57,1.79-1.37,2.28-.44.32-.98.48-1.52.46-.53,0-1.04-.12-1.52-.33-.49-.21-.93-.53-1.27-.94-1.08-1.27-2.46-2.25-4.01-2.87-1.79-.63-3.68-.94-5.58-.89-3.67,0-6.58,1.15-8.63,3.43s-3.1,5.49-3.1,9.57,1.05,7.24,3.12,9.5,5,3.4,8.71,3.4c4.25,0,7.68-1.26,10.21-3.76.75-.83,1.78-1.36,2.9-1.47.61,0,1.21.22,1.68.61.7.53,1.13,1.35,1.17,2.23-.02.65-.25,1.28-.66,1.78-1.64,1.99-3.79,3.5-6.22,4.37-2.9,1.08-5.97,1.62-9.07,1.57h0ZM12.77,101.09c-.89.04-1.76-.25-2.44-.81-.62-.57-.96-1.39-.91-2.24v-25.49c-.12-2.05.63-4.06,2.06-5.53,1.57-1.39,3.62-2.1,5.71-1.98h8.58c2.29-.03,4.57.24,6.79.8,1.79.46,3.47,1.27,4.94,2.4,1.32,1.04,2.35,2.4,3.01,3.95.7,1.73,1.04,3.58,1,5.45.04,1.86-.3,3.71-.98,5.45-.63,1.54-1.64,2.9-2.93,3.95-1.43,1.13-3.08,1.94-4.84,2.4-2.18.56-4.43.83-6.69.8h-9.9v7.82c.03.84-.31,1.65-.94,2.21-.69.58-1.57.87-2.47.83h0ZM18.35,70.27c-.61-.03-1.19.21-1.6.66-.41.52-.62,1.17-.58,1.83v12.24h9.85c2.88,0,5.07-.62,6.51-1.84,1.52-1.42,2.32-3.45,2.17-5.52.15-2.07-.65-4.1-2.17-5.52-1.44-1.22-3.63-1.84-6.51-1.84h-7.67ZM107.98,101.04c-.9.04-1.78-.26-2.46-.84-.63-.56-.97-1.37-.94-2.21v-8.28h-18.38v8.28c.03.84-.31,1.65-.94,2.21-1.44,1.11-3.45,1.12-4.9.03-.62-.57-.96-1.39-.91-2.23v-17.77c-.03-2.23.32-4.45,1.05-6.56.67-1.87,1.75-3.57,3.16-4.96,1.43-1.4,3.15-2.47,5.04-3.12,2.15-.72,4.42-1.08,6.69-1.04,2.95-.07,5.88.57,8.53,1.88,2.35,1.2,4.27,3.1,5.51,5.43,1.32,2.59,1.97,5.47,1.9,8.38v17.77c.04.84-.29,1.66-.91,2.24-.68.56-1.55.85-2.43.81ZM95.39,69.86c-3.05,0-5.37.86-6.89,2.55s-2.3,4.27-2.3,7.65v4.42h18.39v-4.42c0-3.37-.78-5.94-2.31-7.64s-3.85-2.56-6.88-2.56ZM71.37,100.58h-16.55c-2.19.13-4.34-.6-6-2.03-1.48-1.51-2.25-3.58-2.13-5.69v-20.31c-.12-2.05.63-4.06,2.06-5.53,1.57-1.39,3.62-2.1,5.72-1.98h15.79c.83-.05,1.66.19,2.33.69.56.49.86,1.21.81,1.96.03.73-.28,1.43-.84,1.9-.67.49-1.48.73-2.31.69h-14.63c-.61-.03-1.19.21-1.6.66-.41.52-.62,1.17-.58,1.83v7.06h12.95c.83-.05,1.66.19,2.33.69.56.49.86,1.21.81,1.96.03.73-.28,1.43-.84,1.9-.67.49-1.48.73-2.31.68h-12.95v7.82c-.04.66.17,1.31.58,1.83.41.45.99.69,1.6.66h15.74c.84-.05,1.66.19,2.34.69.56.49.86,1.21.81,1.96.03.73-.28,1.43-.84,1.9-.67.49-1.48.74-2.31.7Z"/>
  </g>
  <g id="Group_54">
    <path id="Path_127" class="cls-2" d="M12.76,55.37c-3.19.05-6.29-1.08-8.69-3.19C1.44,49.83-.04,46.45,0,42.92v-25.49c-.15-4.61,1.64-9.08,4.94-12.31C8.25,2.02,12.65.37,17.18.51h9.04c7.13,0,12.89,1.64,17.13,4.87,3.45,2.63,7.56,7.59,7.56,16.26.17,5.33-1.74,10.53-5.33,14.47,3.49,5.15,2.5,12.1-2.27,16.08l-.18.15-.19.14c-5.25,4.25-12.92,3.64-17.42-1.4l-1.7-1.74c-.69,1.13-1.55,2.14-2.57,2.99-2.38,1.99-5.39,3.06-8.49,3.02"/>
    <path id="Path_129" class="cls-2" d="M74.97,55.33c-3.21.05-6.32-1.1-8.73-3.23-2.02-1.79-3.39-4.21-3.87-6.87-.48,2.66-1.85,5.08-3.87,6.88-5,4.28-12.38,4.3-17.4.04-2.64-2.35-4.13-5.74-4.08-9.27v-17.77c0-9.33,3.81-15.06,7.01-18.22C48.66,2.32,54.83,0,62.38,0c4.47-.08,8.89.93,12.88,2.94,4.03,2.07,7.33,5.33,9.46,9.33,2.06,3.96,3.09,8.36,3.02,12.82v17.77c.05,3.53-1.44,6.91-4.07,9.26-2.4,2.1-5.5,3.24-8.69,3.19"/>
    <path id="Path_130" class="cls-2" d="M100.92,55.38c-4.33.02-8.62-.74-12.67-2.26-4.02-1.5-7.69-3.81-10.78-6.79l-.11-.1c-2.24-2.21-3.51-5.23-3.52-8.38.03-3.31,1.39-6.48,3.77-8.78.11-.11.22-.21.33-.32-1.9-2.95-2.9-6.38-2.88-9.89,0-4.03,1.43-7.92,4.06-10.98,2.43-2.8,5.56-4.9,9.06-6.11,7.41-2.52,15.47-2.33,22.76.52,3.91,1.56,7.28,4.23,9.7,7.66l.14.2.12.2c1.31,2.02,2.03,4.37,2.07,6.78v.38c-.1,2.6-1.05,5.1-2.71,7.11.29.36.57.73.83,1.11,2.11,3.11,3.21,6.79,3.15,10.55.02,3.95-1.29,7.78-3.72,10.89-2.34,2.92-5.44,5.14-8.96,6.41-3.41,1.24-7.01,1.85-10.64,1.8"/>
    <path id="Path_131" class="cls-2" d="M123.36,55.37c-3.19.05-6.29-1.08-8.69-3.19-2.63-2.35-4.12-5.73-4.07-9.26v-25.49c-.15-4.61,1.64-9.08,4.94-12.31,3.31-3.1,7.71-4.76,12.23-4.61h8.58c7.31,0,13.22,1.77,17.59,5.25,3.44,2.75,7.55,7.88,7.55,16.75s-4,13.93-7.36,16.67c-4.32,3.53-10.2,5.33-17.48,5.33h-.59c-.35,2.95-1.77,5.67-3.99,7.64-2.4,2.12-5.51,3.27-8.72,3.22"/>
    <path id="Path_132" class="cls-2" d="M164.14,54.87c-4.61.16-9.09-1.5-12.48-4.63-3.37-3.27-5.2-7.81-5.05-12.5v-20.31c-.15-4.61,1.64-9.08,4.94-12.31,3.31-3.1,7.71-4.76,12.24-4.61h11.73c6.05,0,11.05,1.5,14.86,4.47,4.45,3.53,6.99,8.95,6.83,14.63,0,2.39-.51,4.75-1.48,6.93,1.37,2.48,2.09,5.27,2.09,8.11.18,5.72-2.19,11.23-6.48,15.02-3.94,3.45-9.06,5.2-15.21,5.2h-11.98Z"/>
    <path id="Path_133" class="cls-2" d="M201.72,54.87c-4.61.16-9.09-1.5-12.48-4.63-3.37-3.27-5.2-7.81-5.05-12.5v-20.31c-.15-4.61,1.64-9.08,4.94-12.31,3.31-3.1,7.71-4.75,12.23-4.61h15.8c3.06-.07,6.04.96,8.4,2.9,2.68,2.27,4.21,5.63,4.16,9.15.05,3.55-1.53,6.93-4.28,9.18-.2.16-.42.33-.65.5.72,1.6,1.09,3.34,1.08,5.1,0,1.75-.37,3.48-1.11,5.07,5.77,3.28,7.79,10.61,4.52,16.38-.71,1.24-1.63,2.35-2.73,3.27-2.34,1.87-5.26,2.87-8.26,2.81h-16.56Z"/>
    <path id="Path_134" class="cls-2" d="M229.95,55.37c-3.19.05-6.29-1.08-8.69-3.19-2.63-2.35-4.12-5.73-4.07-9.26v-25.49c-.15-4.61,1.64-9.08,4.94-12.31,3.31-3.1,7.7-4.76,12.23-4.61h9.04c7.13,0,12.89,1.64,17.13,4.87,3.45,2.63,7.56,7.59,7.56,16.26.17,5.33-1.74,10.53-5.33,14.47,3.49,5.15,2.5,12.1-2.27,16.08l-.18.15-.19.14c-5.25,4.25-12.92,3.64-17.42-1.4l-1.7-1.74c-.69,1.13-1.55,2.14-2.56,2.99-2.38,1.99-5.39,3.06-8.49,3.02"/>
    <path id="Path_135" class="cls-2" d="M267.22,55.37c-3.19.05-6.29-1.08-8.69-3.19-2.63-2.35-4.12-5.73-4.07-9.26v-25.49c-.15-4.61,1.64-9.08,4.94-12.31,3.31-3.1,7.71-4.76,12.24-4.61h9.04c7.13,0,12.89,1.64,17.13,4.87,3.45,2.63,7.56,7.59,7.56,16.26.17,5.33-1.74,10.53-5.33,14.47,3.49,5.15,2.5,12.1-2.27,16.08l-.18.15-.19.14c-5.25,4.25-12.92,3.64-17.42-1.4l-1.7-1.74c-.69,1.13-1.55,2.14-2.56,2.99-2.38,1.99-5.39,3.06-8.49,3.02"/>
    <path id="Path_136" class="cls-2" d="M316.94,55.38c-3.19.05-6.28-1.08-8.68-3.19-2.64-2.35-4.12-5.73-4.07-9.27v-2.19c-2.89-1.45-5.43-3.5-7.46-6.02-3.64-4.51-5.49-10.2-5.49-16.93v-5.33c-.05-3.53,1.44-6.91,4.07-9.27,5.02-4.26,12.39-4.25,17.4.03,2.63,2.34,4.13,5.71,4.09,9.23v5.48c0,.51.03,1.01.11,1.51h.06c.08-.5.12-1.01.11-1.51v-5.48c-.04-3.52,1.45-6.89,4.08-9.23,5.01-4.28,12.38-4.3,17.41-.04,2.64,2.35,4.12,5.73,4.07,9.27v5.33c0,6.67-1.84,12.35-5.47,16.88-2.02,2.52-4.55,4.58-7.43,6.04v2.21c.04,3.52-1.45,6.89-4.09,9.23-2.4,2.12-5.51,3.27-8.72,3.22"/>
    <path id="Subtraction_6" class="cls-1" d="M316.94,45.72c-.89.04-1.76-.25-2.44-.81-.62-.57-.96-1.39-.91-2.23v-8.99c-1.91-.26-3.75-.85-5.46-1.74-1.58-.84-2.97-2-4.09-3.39-1.15-1.44-2.02-3.09-2.55-4.86-.59-2-.87-4.07-.85-6.16v-5.33c-.04-.84.29-1.66.91-2.23,1.45-1.09,3.46-1.08,4.9.02.63.56.97,1.37.94,2.21v5.48c0,3.5.83,6.23,2.46,8.1,3.98,3.76,10.19,3.76,14.17,0,1.64-1.87,2.46-4.6,2.46-8.1v-5.48c-.03-.84.31-1.65.94-2.21,1.44-1.11,3.45-1.12,4.9-.02.62.57.96,1.39.92,2.23v5.33c.02,2.07-.26,4.14-.85,6.12-.54,1.77-1.4,3.42-2.55,4.87-1.12,1.4-2.5,2.56-4.07,3.41-1.69.89-3.53,1.48-5.42,1.75v8.99c.03.84-.31,1.65-.94,2.21-.69.58-1.57.88-2.46.84ZM267.23,45.72c-.89.04-1.75-.25-2.44-.81-.62-.57-.96-1.39-.91-2.23v-25.49c-.12-2.05.63-4.06,2.06-5.53,1.57-1.39,3.62-2.1,5.71-1.98h9.04c2.24-.03,4.47.22,6.64.74,1.73.41,3.35,1.16,4.79,2.21,1.26.96,2.26,2.22,2.89,3.67.67,1.62,1,3.36.97,5.12.03,1.65-.25,3.29-.81,4.84-.52,1.38-1.35,2.63-2.42,3.64-1.08,1.02-2.37,1.8-3.78,2.28-1.57.53-3.22.79-4.88.76l7.72,7.67c.58.54.91,1.29.92,2.08-.01.84-.41,1.62-1.07,2.13-1.35,1.23-3.45,1.13-4.68-.22-.07-.08-.14-.16-.2-.24l-10.97-11.22h-5.18v9.55c.04.85-.32,1.68-.97,2.23-.69.56-1.55.85-2.44.81ZM272.81,14.89c-.61-.03-1.19.21-1.6.66-.41.52-.62,1.17-.58,1.83v10.51h9.85c1.77.06,3.53-.16,5.23-.66,1.11-.33,2.06-1.07,2.67-2.06.58-1.17.85-2.48.79-3.78,0-2.29-.71-3.97-2.11-4.98s-3.61-1.52-6.58-1.52h-7.66ZM229.95,45.72c-.89.04-1.76-.25-2.44-.81-.62-.57-.96-1.39-.91-2.23v-25.49c-.12-2.05.63-4.06,2.06-5.53,1.57-1.39,3.62-2.1,5.71-1.98h9.04c2.24-.03,4.47.22,6.64.74,1.73.41,3.35,1.16,4.79,2.21,1.26.96,2.26,2.22,2.89,3.67.67,1.62,1,3.36.96,5.12.03,1.65-.25,3.29-.81,4.84-.52,1.38-1.35,2.63-2.42,3.64-1.08,1.02-2.37,1.8-3.78,2.28-1.57.53-3.22.79-4.88.76l7.72,7.67c.58.54.91,1.29.92,2.08-.01.84-.41,1.62-1.07,2.13-1.35,1.23-3.44,1.13-4.67-.22-.07-.08-.14-.16-.2-.24l-10.97-11.22h-5.18v9.55c.04.85-.32,1.68-.96,2.23-.69.56-1.55.85-2.44.81ZM235.54,14.89c-.6-.03-1.19.21-1.6.66-.41.52-.62,1.17-.58,1.83v10.51h9.85c1.77.06,3.53-.16,5.23-.66,1.11-.33,2.06-1.07,2.67-2.06.58-1.17.85-2.48.79-3.78,0-2.29-.71-3.97-2.11-4.98s-3.61-1.52-6.58-1.52h-7.67ZM123.37,45.72c-.89.04-1.75-.25-2.44-.81-.62-.57-.96-1.39-.91-2.23v-25.49c-.12-2.05.63-4.06,2.06-5.53,1.57-1.39,3.62-2.1,5.71-1.98h8.58c2.29-.03,4.57.24,6.79.8,1.79.46,3.47,1.27,4.94,2.4,1.32,1.04,2.35,2.4,3.01,3.95.7,1.73,1.04,3.58,1,5.45.04,1.86-.3,3.71-.98,5.45-.63,1.54-1.64,2.9-2.93,3.95-1.43,1.13-3.08,1.94-4.84,2.4-2.18.56-4.43.83-6.69.8h-9.9v7.82c.03.84-.31,1.65-.94,2.21-.69.58-1.57.88-2.46.84ZM128.95,14.89c-.6-.03-1.19.21-1.6.66-.41.52-.62,1.17-.58,1.83v12.24h9.85c2.88,0,5.07-.62,6.51-1.84,1.52-1.42,2.32-3.45,2.17-5.52.15-2.07-.65-4.11-2.17-5.52-1.44-1.22-3.63-1.84-6.51-1.84h-7.66ZM100.92,45.72c-3.19.02-6.35-.54-9.34-1.65-2.82-1.05-5.39-2.66-7.56-4.75-.48-.45-.75-1.07-.76-1.73.03-.82.4-1.59,1.01-2.14.46-.5,1.1-.8,1.78-.81.92.11,1.78.52,2.44,1.17,1.65,1.49,3.57,2.63,5.66,3.38,2.17.79,4.47,1.2,6.78,1.19,1.81.09,3.62-.3,5.23-1.14,1.18-.64,1.9-1.88,1.88-3.23,0-1.45-.77-2.8-2.03-3.53-2.15-1.19-4.48-2-6.91-2.41-5.09-1.11-8.84-2.6-11.15-4.42-1.09-.84-1.98-1.91-2.61-3.14-.59-1.22-.89-2.57-.87-3.92,0-1.8.64-3.54,1.83-4.9,1.38-1.54,3.14-2.7,5.1-3.35,2.41-.83,4.95-1.23,7.49-1.19,2.88-.05,5.73.48,8.4,1.55,2.25.88,4.2,2.38,5.61,4.34.38.54.61,1.17.66,1.83-.06.88-.53,1.69-1.26,2.18-.45.31-.98.47-1.52.46-1.01.02-1.96-.43-2.59-1.22-1.06-1.24-2.41-2.2-3.93-2.79-1.7-.69-3.52-1.03-5.36-1.02-1.93-.1-3.86.28-5.61,1.09-1.2.53-1.99,1.71-2.01,3.02.03,1.33.78,2.55,1.96,3.17,2.13,1.13,4.41,1.92,6.78,2.36,2.96.64,5.83,1.61,8.58,2.87,1.88.84,3.51,2.14,4.75,3.78,1.02,1.55,1.55,3.37,1.5,5.23.02,1.85-.59,3.65-1.73,5.1-1.28,1.56-2.97,2.74-4.88,3.4-2.35.84-4.82,1.24-7.31,1.2ZM12.77,45.72c-.89.04-1.75-.25-2.44-.81-.62-.57-.96-1.39-.91-2.24v-25.49c-.12-2.05.63-4.06,2.06-5.54,1.57-1.39,3.62-2.1,5.71-1.98h9.04c2.24-.03,4.47.22,6.64.74,1.73.41,3.35,1.16,4.79,2.21,1.26.96,2.26,2.22,2.89,3.67.67,1.62,1,3.36.97,5.12.03,1.65-.25,3.29-.81,4.84-.52,1.38-1.35,2.63-2.42,3.64-1.08,1.02-2.37,1.8-3.78,2.28-1.57.53-3.22.79-4.88.76l7.72,7.67c.58.54.91,1.29.92,2.08-.01.84-.41,1.62-1.07,2.13-.61.52-1.38.83-2.18.86-1.05-.03-2.03-.51-2.69-1.32l-10.97-11.22h-5.18v9.55c.04.85-.32,1.68-.97,2.23-.69.56-1.55.85-2.44.81ZM18.35,14.89c-.61-.03-1.19.21-1.6.66-.41.52-.62,1.17-.58,1.83v10.51h9.85c1.77.06,3.53-.16,5.23-.66,1.11-.33,2.06-1.07,2.67-2.06.58-1.17.85-2.48.79-3.78,0-2.29-.71-3.97-2.11-4.98s-3.61-1.52-6.58-1.52h-7.66ZM74.97,45.67c-.9.04-1.78-.26-2.46-.84-.63-.56-.97-1.37-.94-2.21v-8.28h-18.38v8.28c.03.84-.31,1.65-.94,2.21-1.44,1.11-3.45,1.12-4.9.03-.62-.57-.96-1.39-.91-2.23v-17.77c-.03-2.23.32-4.45,1.05-6.56.67-1.87,1.75-3.56,3.16-4.96,1.43-1.4,3.15-2.47,5.04-3.12,2.15-.72,4.42-1.08,6.69-1.04,2.96-.07,5.88.57,8.54,1.88,2.35,1.21,4.27,3.1,5.5,5.43,1.32,2.59,1.97,5.47,1.9,8.38v17.77c.04.84-.29,1.66-.9,2.24-.68.57-1.56.86-2.44.81h0ZM62.38,14.49c-3.05,0-5.37.86-6.89,2.55s-2.3,4.27-2.3,7.66v4.42h18.39v-4.42c0-3.37-.78-5.94-2.31-7.64s-3.85-2.56-6.88-2.56ZM218.28,45.21h-16.56c-2.19.13-4.34-.6-5.99-2.03-1.48-1.51-2.25-3.58-2.13-5.69v-20.31c-.12-2.05.63-4.06,2.06-5.53,1.57-1.39,3.62-2.1,5.72-1.98h15.79c.84-.05,1.66.19,2.34.69.56.49.85,1.21.81,1.96.03.73-.28,1.43-.84,1.9-.67.49-1.48.73-2.31.68h-14.63c-.6-.03-1.19.21-1.6.66-.41.52-.62,1.17-.59,1.83v7.06h12.95c.84-.05,1.66.19,2.34.69.56.49.85,1.21.81,1.96.03.73-.28,1.43-.84,1.9-.67.49-1.48.73-2.31.69h-12.95v7.82c-.04.66.17,1.31.59,1.83.41.45.99.69,1.6.66h15.74c.84-.05,1.66.19,2.34.68.56.49.85,1.21.81,1.96.03.73-.28,1.43-.84,1.9-.67.49-1.48.74-2.31.7h0ZM176.13,45.21h-11.99c-2.19.13-4.34-.6-5.99-2.03-1.48-1.51-2.25-3.58-2.13-5.69v-20.31c-.12-2.05.63-4.06,2.06-5.53,1.57-1.39,3.62-2.1,5.71-1.98h11.73c3.91,0,6.96.84,9.09,2.49,1.04.8,1.87,1.85,2.4,3.05.55,1.32.83,2.74.8,4.16,0,1.55-.48,3.07-1.37,4.34-.89,1.31-2.12,2.36-3.55,3.02v.05c1.59.62,2.98,1.69,3.99,3.07,1,1.31,1.54,2.9,1.55,4.55.03,1.55-.25,3.09-.82,4.53-.54,1.32-1.38,2.49-2.46,3.42-1.13.98-2.46,1.71-3.89,2.15-1.66.5-3.39.74-5.12.72h0ZM162.67,29.47v8.07c-.04.66.17,1.31.58,1.83.41.45.99.69,1.6.66h10.66c1.64.12,3.27-.37,4.57-1.38,1.08-1.1,1.64-2.61,1.53-4.15.07-1.42-.52-2.79-1.6-3.71-1.3-.95-2.89-1.42-4.49-1.32h-12.85ZM164.85,14.84c-.61-.03-1.19.21-1.6.66-.41.52-.62,1.17-.58,1.83v7.01h12.85c1.46.09,2.89-.37,4.04-1.27,1-.94,1.53-2.28,1.45-3.66.11-1.3-.4-2.58-1.37-3.46-1.21-.83-2.66-1.22-4.12-1.11h-10.66Z"/>
  </g>
</svg>