<?xml version="1.0" encoding="UTF-8"?>
<svg id="Layer_2" data-name="Layer 2" xmlns="http://www.w3.org/2000/svg" viewBox="0 0 88.02 76.99">
  <defs>
    <style>
      .cls-1 {
        fill: #fff;
        stroke-width: 0px;
      }
    </style>
  </defs>
  <g id="Layer_18" data-name="Layer 18">
    <path class="cls-1" d="M2.79,5.66c-1.5,0-2.79-1.29-2.79-2.86S1.29,0,2.79,0h7.59c2.58.07,4.87.57,6.8,1.79,2.15,1.36,3.72,3.44,4.58,6.52,0,.07,0,.14.07.21l.72,2.86h62.66c1.58,0,2.79,1.29,2.79,2.79,0,.29-.07.57-.14.86l-7.3,29.43c-.29,1.29-1.43,2.15-2.72,2.15h-45.83c1,3.72,2.01,5.73,3.37,6.66,1.65,1.07,4.51,1.15,9.31,1.07h32.44c1.58,0,2.79,1.29,2.79,2.79s-1.29,2.79-2.79,2.79h-32.37c-5.94.07-9.6-.07-12.53-2.01-3.01-2.01-4.58-5.44-6.16-11.67h0L16.47,9.95q0-.07-.07-.14c-.43-1.58-1.15-2.65-2.15-3.22-1-.64-2.36-.93-3.94-.93H2.79ZM68.75,63.24c3.8,0,6.88,3.08,6.88,6.88s-3.08,6.88-6.88,6.88-6.88-3.08-6.88-6.88,3.08-6.88,6.88-6.88h0ZM38.6,63.24c3.8,0,6.88,3.08,6.88,6.88s-3.08,6.88-6.88,6.88-6.88-3.08-6.88-6.88c0-3.8,3.08-6.88,6.88-6.88h0ZM24.13,16.97l6.37,23.99h45.19l5.94-23.99H24.13Z"/>
  </g>
</svg>