<?xml version="1.0" encoding="UTF-8"?>
<svg id="Layer_1" xmlns="http://www.w3.org/2000/svg" viewBox="0 0 380 108.22">
  <defs>
    <style>
      .cls-1 {
        fill: #fff;
      }

      .cls-2 {
        fill: #000;
      }
    </style>
  </defs>
  <g id="Group_49">
    <path id="Path_42" class="cls-2" d="M39.93,108.21c-6.62,0-10.35-3.62-11.89-7.42-.69,1.63-1.73,3.09-3.06,4.27-4.89,4.19-12.1,4.2-17.01.03-2.57-2.3-4.02-5.6-3.98-9.05v-29.77c-.05-3.45,1.4-6.75,3.98-9.05,4.91-4.16,12.11-4.15,17,.03.88.78,1.64,1.69,2.26,2.7l2.99-2.61c2.25-2.05,5.18-3.19,8.22-3.19,3.32,0,6.49,1.38,8.75,3.81l.15.16c2.09,2.18,3.28,5.08,3.32,8.1-.05,3.49-1.63,6.78-4.33,9l-2.66,2.32c4.42,4.74,7.24,10.75,8.07,17.18.42,3.34-.57,6.7-2.74,9.28-2.24,2.69-5.56,4.24-9.06,4.21"/>
    <path id="Path_44" class="cls-2" d="M52.44,108.21c-3.12.05-6.14-1.06-8.49-3.12-2.57-2.3-4.03-5.6-3.98-9.05v-29.77c-.05-3.45,1.4-6.75,3.98-9.05,2.34-2.06,5.37-3.17,8.48-3.11,3.03-.04,5.97,1.01,8.29,2.95,2.72,2.28,4.27,5.67,4.22,9.22v29.77c.05,3.55-1.5,6.93-4.22,9.21-2.33,1.94-5.27,2.99-8.3,2.95"/>
    <path id="Path_46" class="cls-2" d="M94.07,108.21c-3.65.09-7.21-1.18-9.97-3.57-2.76,2.39-6.32,3.67-9.97,3.57-4.14.09-8.14-1.54-11.03-4.5-2.56-2.81-4.23-6.32-4.79-10.08l-4.93-25.32-.02-.12c-.14-.78-.22-1.57-.23-2.36-.04-3.54,1.55-6.89,4.32-9.1,5.13-3.77,12.19-3.44,16.94.81,5.67-4.57,13.76-4.57,19.43,0,4.74-4.24,11.81-4.58,16.93-.81,2.77,2.21,4.36,5.57,4.33,9.11,0,.78-.08,1.57-.22,2.34l-.05.26-4.91,25.25c-.56,3.75-2.22,7.24-4.78,10.03-2.9,2.96-6.89,4.59-11.03,4.5"/>
    <path id="Path_48" class="cls-2" d="M115.7,108.21c-3.12.05-6.14-1.06-8.49-3.12-2.57-2.3-4.03-5.6-3.98-9.05v-29.77c-.05-3.45,1.4-6.75,3.98-9.05,2.34-2.06,5.37-3.17,8.48-3.11,3.03-.04,5.97,1.01,8.29,2.95,2.72,2.28,4.27,5.67,4.22,9.22v29.77c.05,3.55-1.5,6.93-4.22,9.21-2.33,1.94-5.27,2.99-8.3,2.95"/>
    <path id="Subtraction_2" class="cls-1" d="M115.7,98.78c-.87.04-1.71-.24-2.38-.79-.61-.56-.94-1.36-.9-2.18v-29.77c-.04-.83.29-1.62.9-2.18.67-.55,1.52-.84,2.38-.79.86-.03,1.71.25,2.38.79.63.54.98,1.35.94,2.18v29.77c.04.83-.31,1.64-.94,2.18-.67.54-1.52.82-2.38.79ZM94.07,98.78c-1.62.09-3.19-.52-4.32-1.69-1.18-1.51-1.89-3.34-2.04-5.26l-2.93-22.23c-.03-.36-.11-.71-.25-1.04-.1-.25-.39-.36-.63-.26-.12.05-.21.14-.26.26-.13.33-.22.68-.25,1.04l-2.93,22.23c-.14,1.92-.85,3.75-2.03,5.26-1.13,1.16-2.7,1.78-4.32,1.69-1.65.07-3.26-.55-4.44-1.71-1.29-1.53-2.1-3.4-2.36-5.38l-4.91-25.26c-.05-.28-.09-.56-.1-.84-.04-.72.26-1.42.82-1.89.66-.46,1.46-.69,2.26-.65.84-.04,1.66.19,2.36.66.61.49,1.01,1.2,1.12,1.97l4.71,26.55c.08.37.19.72.35,1.07.07.16.22.27.4.27.4,0,.65-.43.74-1.29l3.12-23.77c.14-1.52.82-2.95,1.91-4.02,2.32-1.92,5.67-1.92,7.99,0,1.09,1.07,1.77,2.5,1.91,4.02l3.12,23.77c.1.86.35,1.29.75,1.29.18,0,.33-.11.4-.27.15-.34.27-.7.35-1.07l4.71-26.55c.11-.78.51-1.48,1.12-1.97.69-.47,1.52-.7,2.36-.66.8-.04,1.6.18,2.26.64.56.46.86,1.16.82,1.89-.01.28-.05.56-.1.84l-4.91,25.26c-.25,1.98-1.07,3.85-2.36,5.38-1.18,1.17-2.79,1.79-4.44,1.71ZM52.44,98.78c-.87.04-1.71-.24-2.38-.79-.61-.56-.93-1.36-.89-2.18v-29.77c-.04-.82.29-1.62.89-2.18.67-.55,1.52-.84,2.38-.79.86-.03,1.71.25,2.38.79.63.54.98,1.35.94,2.18v29.77c.04.83-.31,1.64-.94,2.18-.67.54-1.52.82-2.38.79h0ZM39.94,98.78c-.85.05-1.7-.14-2.45-.54-.58-.36-.98-.96-1.08-1.64-.49-3.2-1.76-6.24-3.7-8.83-2.2-2.63-4.93-4.76-8.01-6.25l-4.91,4.07v10.22c.03.82-.31,1.61-.92,2.16-.67.57-1.53.86-2.41.82-.87.04-1.72-.24-2.38-.79-.61-.56-.93-1.36-.89-2.18v-29.77c-.04-.82.29-1.62.89-2.18.67-.55,1.52-.84,2.38-.79.88-.04,1.73.25,2.41.82.61.55.95,1.34.92,2.16v12.35l16.57-14.44c.56-.54,1.31-.85,2.08-.84.8,0,1.56.35,2.09.94.54.51.88,1.2.94,1.94-.08.83-.51,1.59-1.19,2.08l-11.41,9.92c1.9.81,3.7,1.86,5.35,3.11,1.56,1.19,2.96,2.59,4.15,4.16,2.31,3.01,3.78,6.58,4.24,10.35.11.8-.12,1.62-.65,2.23-.5.61-1.25.96-2.04.94h0Z"/>
  </g>
  <g id="Group_50">
    <g id="Group_48">
      <path id="Path_22" class="cls-2" d="M26.46,54.1c-4.23.02-8.42-.72-12.38-2.2-3.93-1.46-7.52-3.72-10.54-6.64l-.11-.1C1.24,43.01,0,40.06,0,36.98c.03-3.24,1.36-6.33,3.68-8.58.11-.11.21-.21.32-.31-1.86-2.88-2.84-6.24-2.82-9.67,0-3.93,1.4-7.74,3.96-10.73,2.38-2.73,5.43-4.79,8.85-5.97C17.37.55,20.91-.04,24.47,0c4.03-.05,8.04.71,11.77,2.23,3.82,1.53,7.11,4.13,9.48,7.49l.13.19.12.2c1.28,1.97,1.98,4.27,2.02,6.62v.37c-.1,2.54-1.03,4.98-2.64,6.94.28.35.55.71.81,1.08,2.06,3.04,3.14,6.64,3.08,10.31.02,3.86-1.26,7.61-3.64,10.65-2.28,2.86-5.31,5.02-8.75,6.26-3.33,1.21-6.86,1.81-10.4,1.76"/>
      <path id="Path_24" class="cls-2" d="M58.31,54.11c-3.12.05-6.14-1.06-8.49-3.11-2.58-2.3-4.03-5.6-3.98-9.05v-17.95h-.39c-2.93.06-5.79-.91-8.07-2.75-2.69-2.19-4.24-5.5-4.19-8.98-.05-3.44,1.44-6.72,4.06-8.94,2.31-1.9,5.22-2.91,8.21-2.83h25.75c2.99-.07,5.9.94,8.21,2.83,2.62,2.22,4.11,5.5,4.06,8.94.05,3.47-1.49,6.78-4.18,8.97-2.29,1.84-5.15,2.81-8.08,2.75h-.39v17.95c.03,3.44-1.42,6.73-3.99,9.02-2.35,2.07-5.39,3.2-8.52,3.15"/>
      <path id="Path_26" class="cls-2" d="M81.63,54.11c-3.12.05-6.14-1.06-8.49-3.12-2.57-2.3-4.02-5.6-3.98-9.05v-24.91c-.14-4.51,1.61-8.87,4.82-12.03,3.23-3.03,7.53-4.65,11.96-4.51h8.83c6.96,0,12.6,1.6,16.74,4.76,3.37,2.57,7.39,7.42,7.39,15.89.17,5.21-1.7,10.29-5.21,14.14,3.41,5.03,2.45,11.82-2.22,15.71l-.18.15-.18.14c-5.13,4.16-12.62,3.56-17.02-1.37l-1.66-1.7c-.67,1.11-1.51,2.1-2.5,2.93-2.33,1.94-5.27,2.99-8.3,2.95"/>
      <path id="Path_28" class="cls-2" d="M142.42,54.06c-3.14.05-6.18-1.08-8.53-3.15-1.98-1.75-3.31-4.12-3.78-6.72-.47,2.6-1.81,4.96-3.78,6.72-4.89,4.18-12.09,4.2-17,.04-2.58-2.3-4.03-5.6-3.99-9.06v-17.36c0-9.12,3.73-14.72,6.85-17.8C116.7,2.26,122.73,0,130.11,0c4.36-.07,8.68.91,12.58,2.88,3.94,2.02,7.17,5.21,9.24,9.12,2.01,3.87,3.02,8.17,2.95,12.53v17.36c.05,3.45-1.4,6.75-3.98,9.05-2.34,2.06-5.37,3.17-8.49,3.12"/>
      <path id="Path_30" class="cls-2" d="M181.52,54.1c-3.65.09-7.21-1.18-9.97-3.57-2.76,2.39-6.32,3.67-9.97,3.57-4.14.09-8.14-1.54-11.03-4.5-2.56-2.81-4.23-6.32-4.79-10.08l-4.93-25.32-.02-.12c-.14-.78-.22-1.57-.23-2.36-.04-3.54,1.55-6.89,4.32-9.1,5.13-3.77,12.19-3.44,16.94.81,5.67-4.57,13.76-4.57,19.43,0,4.74-4.24,11.81-4.58,16.93-.81,2.77,2.21,4.36,5.57,4.32,9.11,0,.78-.08,1.57-.22,2.34l-.05.26-4.91,25.26c-.56,3.75-2.22,7.24-4.79,10.03-2.9,2.96-6.89,4.59-11.03,4.5"/>
      <path id="Path_32" class="cls-2" d="M205.58,53.61c-4.5.16-8.88-1.47-12.19-4.52-3.29-3.19-5.08-7.63-4.93-12.21v-19.85c-.14-4.51,1.61-8.87,4.82-12.03,3.23-3.03,7.53-4.65,11.96-4.51h11.46c5.91,0,10.8,1.47,14.52,4.37,4.35,3.45,6.83,8.75,6.68,14.3,0,2.33-.49,4.64-1.45,6.77,1.34,2.43,2.04,5.15,2.05,7.92.18,5.59-2.14,10.97-6.34,14.68-3.85,3.37-8.85,5.08-14.86,5.08h-11.71Z"/>
      <path id="Path_34" class="cls-2" d="M242.3,53.61c-4.5.16-8.88-1.47-12.19-4.52-3.29-3.19-5.08-7.63-4.93-12.21v-19.85c-.14-4.51,1.61-8.87,4.82-12.03,3.23-3.03,7.53-4.65,11.96-4.51h15.43c2.98-.07,5.89.94,8.2,2.83,2.62,2.22,4.11,5.5,4.06,8.94.05,3.47-1.49,6.78-4.18,8.97-.2.16-.41.32-.64.49.7,1.57,1.06,3.27,1.05,4.98,0,1.71-.37,3.4-1.08,4.96,5.64,3.2,7.61,10.37,4.41,16-.69,1.21-1.59,2.3-2.66,3.2-2.29,1.83-5.14,2.8-8.07,2.74h-16.17Z"/>
      <path id="Path_36" class="cls-2" d="M269.89,54.11c-3.12.05-6.14-1.06-8.49-3.12-2.57-2.3-4.02-5.6-3.98-9.05v-24.91c-.14-4.51,1.61-8.87,4.83-12.03,3.23-3.03,7.53-4.65,11.95-4.51h8.83c6.96,0,12.6,1.6,16.74,4.76,3.37,2.57,7.39,7.42,7.39,15.89.17,5.21-1.7,10.29-5.21,14.14,3.41,5.03,2.45,11.82-2.22,15.71l-.17.15-.18.14c-5.13,4.16-12.62,3.56-17.02-1.37l-1.66-1.7c-.67,1.1-1.52,2.09-2.51,2.92-2.33,1.94-5.27,2.99-8.3,2.95"/>
      <path id="Path_38" class="cls-2" d="M306.31,54.11c-3.12.05-6.14-1.06-8.49-3.12-2.57-2.3-4.02-5.6-3.98-9.05v-24.91c-.14-4.51,1.61-8.87,4.83-12.03,3.23-3.03,7.53-4.65,11.96-4.51h8.83c6.96,0,12.6,1.6,16.74,4.76,3.37,2.57,7.39,7.42,7.39,15.89.17,5.21-1.7,10.29-5.21,14.14,3.41,5.03,2.45,11.82-2.22,15.71l-.17.15-.18.14c-5.13,4.16-12.62,3.56-17.02-1.37l-1.66-1.7c-.67,1.1-1.52,2.09-2.51,2.92-2.33,1.94-5.27,2.99-8.3,2.95"/>
      <path id="Path_40" class="cls-2" d="M354.88,54.1c-3.12.05-6.14-1.06-8.48-3.11-2.58-2.3-4.03-5.6-3.98-9.06v-2.13c-2.82-1.42-5.31-3.43-7.29-5.88-3.56-4.41-5.36-9.97-5.36-16.54v-5.21c-.05-3.45,1.4-6.75,3.98-9.05,4.91-4.16,12.11-4.15,17,.03,2.57,2.29,4.03,5.58,4,9.02v5.36c0,.49.03.99.11,1.47h.06c.08-.49.12-.98.11-1.48v-5.35c-.03-3.44,1.42-6.73,3.99-9.02,4.89-4.19,12.1-4.2,17.01-.04,2.58,2.3,4.03,5.6,3.98,9.05v5.21c0,6.52-1.8,12.07-5.35,16.49-1.97,2.46-4.45,4.47-7.26,5.9v2.16c.04,3.44-1.42,6.73-3.99,9.02-2.35,2.07-5.39,3.2-8.52,3.15"/>
      <path id="Subtraction_1" class="cls-1" d="M354.88,44.67c-.86.04-1.71-.24-2.38-.79-.61-.56-.94-1.36-.89-2.18v-8.78c-1.86-.26-3.67-.83-5.33-1.7-1.54-.83-2.9-1.95-3.99-3.31-1.13-1.41-1.97-3.02-2.49-4.75-.58-1.95-.86-3.98-.83-6.02v-5.21c-.04-.82.29-1.62.89-2.18.67-.55,1.51-.84,2.38-.79.88-.04,1.74.25,2.41.82.61.55.95,1.34.92,2.16v5.36c0,3.43.81,6.09,2.41,7.91,3.88,3.67,9.96,3.67,13.84,0,1.6-1.83,2.41-4.49,2.41-7.91v-5.36c-.03-.82.31-1.61.92-2.16,1.41-1.08,3.37-1.09,4.79-.02.61.56.93,1.36.89,2.18v5.21c.02,2.03-.26,4.04-.83,5.99-.52,1.73-1.37,3.34-2.49,4.76-1.09,1.37-2.45,2.5-3.98,3.33-1.65.87-3.45,1.45-5.3,1.71v8.78c.03.82-.31,1.61-.92,2.16-.67.56-1.53.86-2.41.82ZM306.31,44.67c-.87.04-1.71-.24-2.38-.79-.61-.56-.94-1.36-.89-2.18v-24.91c-.11-2,.61-3.97,2.01-5.41,1.53-1.36,3.54-2.05,5.58-1.93h8.83c2.18-.03,4.36.21,6.49.72,1.69.4,3.28,1.13,4.68,2.16,1.23.93,2.21,2.17,2.83,3.59.66,1.58.98,3.29.94,5,.03,1.61-.24,3.21-.79,4.73-.51,1.35-1.32,2.57-2.36,3.56-1.06,1-2.32,1.76-3.69,2.23-1.54.52-3.15.77-4.77.74l7.54,7.49c.56.53.89,1.26.89,2.03-.01.82-.4,1.58-1.04,2.08-1.32,1.2-3.36,1.11-4.57-.21-.07-.08-.13-.15-.19-.23l-10.72-10.97h-5.06v9.33c.04.83-.31,1.64-.95,2.18-.67.54-1.52.82-2.38.79ZM311.76,14.55c-.59-.03-1.16.21-1.56.64-.4.5-.61,1.14-.57,1.79v10.27h9.62c1.73.06,3.45-.16,5.11-.65,1.09-.33,2.01-1.04,2.6-2.01.56-1.15.83-2.42.77-3.7,0-2.24-.69-3.88-2.06-4.86s-3.53-1.49-6.43-1.49h-7.49ZM269.89,44.67c-.87.04-1.72-.24-2.38-.79-.61-.56-.93-1.36-.89-2.18v-24.91c-.11-2,.61-3.96,2.01-5.41,1.53-1.35,3.54-2.05,5.58-1.93h8.83c2.18-.03,4.36.21,6.49.72,1.69.4,3.28,1.13,4.68,2.16,1.23.93,2.21,2.17,2.83,3.59.66,1.58.98,3.29.94,5,.03,1.61-.24,3.21-.79,4.73-.51,1.35-1.32,2.57-2.36,3.56-1.06,1-2.32,1.76-3.69,2.23-1.54.52-3.15.77-4.77.74l7.54,7.49c.56.53.89,1.26.89,2.03-.01.82-.4,1.58-1.04,2.08-1.32,1.2-3.36,1.11-4.57-.21-.07-.08-.13-.15-.2-.24l-10.72-10.97h-5.06v9.33c.04.83-.31,1.64-.94,2.18-.67.54-1.52.82-2.38.79ZM275.35,14.55c-.59-.03-1.16.21-1.56.64-.4.5-.61,1.14-.57,1.79v10.27h9.63c1.73.06,3.45-.16,5.11-.65,1.09-.33,2.01-1.04,2.61-2.01.56-1.15.83-2.42.77-3.7,0-2.24-.69-3.87-2.06-4.86s-3.53-1.49-6.43-1.49h-7.49ZM181.52,44.67c-1.62.09-3.19-.52-4.32-1.69-1.18-1.51-1.89-3.34-2.03-5.26l-2.93-22.23c-.03-.36-.12-.71-.25-1.04-.1-.25-.39-.36-.64-.26-.12.05-.21.14-.26.26-.13.33-.22.68-.25,1.04l-2.93,22.23c-.14,1.92-.85,3.75-2.03,5.26-1.13,1.16-2.7,1.78-4.32,1.69-1.65.07-3.26-.55-4.44-1.71-1.29-1.53-2.1-3.4-2.36-5.38l-4.91-25.26c-.05-.28-.09-.56-.1-.84-.04-.72.26-1.42.82-1.89.66-.46,1.46-.69,2.26-.64.84-.04,1.66.19,2.35.66.61.49,1.01,1.2,1.12,1.97l4.71,26.55c.08.37.19.72.35,1.07.07.16.22.27.4.27.4,0,.65-.43.74-1.29l3.13-23.77c.14-1.52.82-2.95,1.91-4.02,2.32-1.92,5.67-1.92,7.99,0,1.09,1.07,1.77,2.5,1.91,4.02l3.13,23.77c.1.86.35,1.29.74,1.29.18,0,.33-.11.4-.27.15-.34.27-.7.35-1.07l4.71-26.55c.11-.77.51-1.48,1.11-1.97.69-.47,1.52-.7,2.36-.66.8-.05,1.6.18,2.26.64.56.46.86,1.16.82,1.89-.01.28-.05.57-.1.84l-4.91,25.25c-.25,1.98-1.07,3.85-2.36,5.38-1.18,1.17-2.79,1.79-4.44,1.71ZM81.63,44.67c-.87.04-1.72-.24-2.38-.79-.61-.56-.93-1.36-.89-2.18v-24.91c-.12-2,.61-3.97,2.01-5.41,1.53-1.36,3.54-2.05,5.58-1.93h8.83c2.18-.03,4.36.21,6.49.72,1.69.4,3.28,1.13,4.68,2.16,1.23.93,2.21,2.17,2.83,3.58.66,1.58.98,3.29.94,5,.03,1.61-.24,3.21-.79,4.73-.51,1.35-1.32,2.57-2.36,3.56-1.06,1-2.32,1.76-3.69,2.23-1.54.52-3.15.77-4.77.74l7.54,7.49c.56.53.89,1.26.89,2.03-.01.82-.4,1.58-1.04,2.08-1.32,1.2-3.36,1.11-4.57-.21-.07-.08-.13-.15-.2-.24l-10.72-10.97h-5.06v9.33c.04.83-.31,1.64-.94,2.18-.67.54-1.52.82-2.38.79h0ZM87.09,14.55c-.59-.03-1.16.21-1.56.64-.4.5-.61,1.14-.57,1.79v10.27h9.63c1.73.06,3.45-.16,5.11-.65,1.09-.32,2.02-1.04,2.61-2.01.57-1.15.83-2.42.77-3.7,0-2.24-.69-3.87-2.06-4.86s-3.53-1.49-6.43-1.49h-7.49ZM58.31,44.67c-.87.04-1.71-.24-2.38-.79-.61-.56-.93-1.36-.89-2.18V14.55h-9.58c-.81.05-1.61-.19-2.26-.67-.55-.46-.85-1.15-.82-1.86-.04-.72.25-1.43.79-1.91.66-.48,1.47-.72,2.28-.67h25.75c.82-.05,1.62.18,2.28.67.55.48.84,1.18.8,1.91.03.71-.27,1.4-.82,1.86-.65.48-1.45.72-2.26.67h-9.58v27.14c.03.82-.31,1.61-.92,2.16-.67.56-1.53.86-2.41.82ZM26.46,44.67c-3.12.02-6.21-.53-9.13-1.61-2.76-1.02-5.27-2.6-7.39-4.64-.47-.44-.74-1.05-.75-1.69.03-.8.39-1.55.99-2.09.45-.49,1.07-.78,1.74-.79.9.11,1.74.51,2.38,1.14,1.61,1.45,3.49,2.58,5.53,3.3,2.12.77,4.36,1.17,6.62,1.17,1.77.09,3.54-.29,5.11-1.12,1.15-.63,1.86-1.84,1.84-3.15,0-1.42-.76-2.73-1.99-3.45-2.1-1.16-4.38-1.96-6.75-2.36-4.97-1.09-8.64-2.54-10.89-4.32-1.07-.82-1.94-1.87-2.55-3.07-.58-1.2-.87-2.51-.85-3.83,0-1.76.63-3.46,1.79-4.79,1.35-1.51,3.07-2.64,4.99-3.27,2.35-.81,4.83-1.21,7.32-1.17,2.81-.05,5.6.47,8.22,1.51,2.2.86,4.1,2.33,5.48,4.24.37.53.59,1.14.65,1.79-.06.87-.52,1.66-1.24,2.13-.44.3-.96.45-1.49.45-.98.02-1.92-.42-2.53-1.19-1.04-1.21-2.36-2.15-3.85-2.73-1.66-.67-3.44-1.01-5.24-.99-1.89-.09-3.77.27-5.48,1.07-1.17.52-1.94,1.67-1.96,2.95.03,1.3.76,2.49,1.91,3.1,2.08,1.1,4.31,1.88,6.62,2.31,2.89.63,5.7,1.57,8.39,2.8,1.84.82,3.43,2.09,4.64,3.7,1,1.51,1.51,3.3,1.46,5.11.02,1.81-.57,3.57-1.69,4.99-1.25,1.53-2.9,2.68-4.76,3.33-2.29.82-4.71,1.21-7.14,1.17ZM142.42,44.62c-.88.04-1.74-.25-2.41-.82-.61-.55-.95-1.34-.92-2.16v-8.09h-17.96v8.09c.03.82-.31,1.61-.92,2.16-1.41,1.08-3.37,1.09-4.79.03-.61-.56-.93-1.36-.89-2.18v-17.37c-.03-2.18.31-4.35,1.03-6.41.66-1.83,1.71-3.48,3.09-4.85,1.4-1.37,3.08-2.41,4.93-3.05,2.11-.71,4.32-1.05,6.54-1.02,2.89-.07,5.75.56,8.34,1.84,2.3,1.18,4.17,3.03,5.38,5.31,1.29,2.53,1.93,5.35,1.86,8.19v17.37c.04.82-.29,1.62-.89,2.18-.67.55-1.52.84-2.38.79ZM130.11,14.15c-2.98,0-5.25.84-6.74,2.49s-2.25,4.17-2.25,7.48v4.32h17.96v-4.32c0-3.29-.76-5.8-2.26-7.47s-3.76-2.51-6.72-2.51ZM258.47,44.17h-16.17c-2.14.13-4.24-.58-5.85-1.99-1.45-1.48-2.2-3.49-2.08-5.56v-19.85c-.12-2,.61-3.97,2.01-5.41,1.53-1.36,3.54-2.05,5.58-1.93h15.43c.82-.05,1.62.18,2.28.67.54.48.83,1.19.79,1.91.03.71-.27,1.4-.82,1.86-.65.48-1.45.72-2.26.67h-14.29c-.59-.03-1.16.21-1.56.64-.4.5-.61,1.14-.57,1.79v6.9h12.65c.82-.05,1.62.18,2.28.67.54.48.84,1.19.79,1.91.03.71-.27,1.4-.82,1.86-.65.48-1.45.72-2.26.67h-12.65v7.64c-.04.65.17,1.28.57,1.79.4.44.97.67,1.56.65h15.38c.82-.05,1.62.18,2.28.67.54.48.83,1.19.79,1.91.03.71-.27,1.4-.82,1.86-.65.48-1.45.71-2.26.66ZM217.29,44.17h-11.71c-2.14.13-4.24-.58-5.85-1.99-1.45-1.48-2.2-3.49-2.08-5.56v-19.85c-.12-2,.61-3.97,2.01-5.41,1.53-1.36,3.54-2.05,5.58-1.93h11.46c3.82,0,6.81.82,8.88,2.43,1.02.78,1.82,1.81,2.35,2.98.54,1.29.81,2.67.78,4.07,0,1.52-.47,3-1.34,4.24-.87,1.28-2.07,2.3-3.47,2.95v.05c1.56.61,2.91,1.65,3.89,3,.97,1.28,1.51,2.84,1.51,4.44.02,1.51-.25,3.02-.8,4.42-.53,1.29-1.35,2.43-2.4,3.34-1.11.95-2.4,1.67-3.8,2.1-1.62.49-3.31.73-5.01.7h0ZM204.14,28.79v7.89c-.04.65.17,1.28.57,1.79.4.44.97.67,1.56.65h10.42c1.6.12,3.2-.36,4.47-1.35,1.06-1.07,1.6-2.55,1.49-4.06.07-1.39-.51-2.72-1.57-3.62-1.27-.93-2.82-1.38-4.39-1.29h-12.55ZM206.27,14.5c-.59-.03-1.16.21-1.56.64-.4.5-.61,1.14-.57,1.79v6.85h12.55c1.42.09,2.83-.36,3.95-1.24.98-.92,1.5-2.23,1.41-3.57.1-1.27-.39-2.52-1.34-3.37-1.18-.81-2.59-1.19-4.02-1.09h-10.42Z"/>
    </g>
  </g>
</svg>